<svg width="28" height="28" viewBox="0 0 28 28" fill="none" xmlns="http://www.w3.org/2000/svg">
<circle cx="14" cy="14" r="14" fill="#191D23"/>
<path fill-rule="evenodd" clip-rule="evenodd" d="M14.6078 7.22656C11.0169 7.22656 8.12793 10.1155 8.12793 13.7065C8.12793 16.5684 9.9909 18.9984 12.5559 19.8624C12.8799 19.9164 12.9879 19.7274 12.9879 19.5384C12.9879 19.3764 12.9879 18.9714 12.9879 18.4314C11.1789 18.8364 10.8009 17.5674 10.8009 17.5674C10.5039 16.8114 10.0719 16.6224 10.0719 16.6224C9.47791 16.2174 10.1259 16.2174 10.1259 16.2174C10.7739 16.2714 11.1249 16.8924 11.1249 16.8924C11.6919 17.8914 12.6369 17.5944 13.0149 17.4324C13.0689 17.0004 13.2308 16.7304 13.4198 16.5684C11.9889 16.4064 10.4769 15.8394 10.4769 13.3555C10.4769 12.6535 10.7199 12.0595 11.1519 11.6275C11.0979 11.4655 10.8549 10.8175 11.2059 9.89952C11.2059 9.89952 11.7459 9.73752 12.9879 10.5745C13.5008 10.4395 14.0678 10.3585 14.6078 10.3585C15.1478 10.3585 15.7148 10.4395 16.2278 10.5745C17.4698 9.73752 18.0098 9.89952 18.0098 9.89952C18.3608 10.7905 18.1448 11.4385 18.0638 11.6275C18.4688 12.0865 18.7388 12.6535 18.7388 13.3555C18.7388 15.8394 17.2268 16.3794 15.7688 16.5414C16.0118 16.7304 16.2008 17.1354 16.2008 17.7294C16.2008 18.5934 16.2008 19.2954 16.2008 19.5114C16.2008 19.6734 16.3088 19.8894 16.6598 19.8354C19.2248 18.9984 21.0877 16.5684 21.0877 13.7065C21.0877 10.1155 18.1988 7.22656 14.6078 7.22656Z" fill="white"/>
</svg>
