<svg width="28" height="28" viewBox="0 0 28 28" fill="none" xmlns="http://www.w3.org/2000/svg">
<circle cx="14" cy="14" r="14" fill="#191D23"/>
<path d="M14.0003 8.44721C15.809 8.44721 16.0232 8.45398 16.7377 8.48656C17.1673 8.49182 17.5928 8.5707 17.9958 8.71979C18.288 8.83248 18.5533 9.00511 18.7748 9.22656C18.9962 9.44802 19.1689 9.71339 19.2816 10.0056C19.4306 10.4085 19.5095 10.8341 19.5148 11.2637C19.547 11.9782 19.5541 12.1924 19.5541 14.0011C19.5541 15.8098 19.5474 16.024 19.5148 16.7385C19.5095 17.1681 19.4306 17.5936 19.2816 17.9966C19.1689 18.2888 18.9962 18.5541 18.7748 18.7756C18.5533 18.997 18.288 19.1697 17.9958 19.2824C17.5928 19.4315 17.1673 19.5103 16.7377 19.5156C16.0235 19.5479 15.8093 19.5549 14.0003 19.5549C12.1912 19.5549 11.977 19.5482 11.2628 19.5156C10.8332 19.5103 10.4077 19.4315 10.0048 19.2824C9.71258 19.1697 9.44721 18.997 9.22575 18.7756C9.0043 18.5541 8.83167 18.2888 8.71898 17.9966C8.56989 17.5936 8.49101 17.1681 8.48575 16.7385C8.45349 16.024 8.4464 15.8098 8.4464 14.0011C8.4464 12.1924 8.45317 11.9782 8.48575 11.2637C8.49101 10.8341 8.56989 10.4085 8.71898 10.0056C8.83167 9.71339 9.0043 9.44802 9.22575 9.22656C9.44721 9.00511 9.71258 8.83248 10.0048 8.71979C10.4077 8.5707 10.8332 8.49182 11.2628 8.48656C11.9774 8.4543 12.1916 8.44721 14.0003 8.44721ZM14.0003 7.22656C12.1616 7.22656 11.9299 7.2343 11.2074 7.26721C10.6451 7.27839 10.0888 7.38485 9.5622 7.58205C9.11043 7.75226 8.70123 8.019 8.36317 8.36366C8.0182 8.70184 7.75123 9.11127 7.58091 9.56334C7.38371 10.09 7.27726 10.6463 7.26607 11.2085C7.23382 11.9304 7.22607 12.162 7.22607 14.0008C7.22607 15.8395 7.23382 16.0711 7.26672 16.7937C7.2779 17.3559 7.38436 17.9122 7.58156 18.4388C7.75169 18.8908 8.01844 19.3002 8.36317 19.6385C8.70142 19.9832 9.11084 20.25 9.56285 20.4201C10.0895 20.6173 10.6458 20.7238 11.208 20.7349C11.9306 20.7672 12.1612 20.7756 14.0009 20.7756C15.8406 20.7756 16.0712 20.7679 16.7938 20.7349C17.3561 20.7238 17.9123 20.6173 18.439 20.4201C18.8888 20.2457 19.2974 19.9794 19.6384 19.6381C19.9795 19.2968 20.2455 18.8882 20.4196 18.4382C20.6168 17.9115 20.7233 17.3553 20.7345 16.793C20.7667 16.0711 20.7745 15.8395 20.7745 14.0008C20.7745 12.162 20.7667 11.9304 20.7338 11.2079C20.7226 10.6456 20.6162 10.0893 20.419 9.56269C20.2488 9.11068 19.9821 8.70126 19.6374 8.36301C19.2991 8.01828 18.8897 7.75153 18.4377 7.5814C17.911 7.3842 17.3548 7.27775 16.7925 7.26656C16.0706 7.2343 15.839 7.22656 14.0003 7.22656Z" fill="white"/>
<path d="M14.0007 10.5234C13.3127 10.5234 12.6401 10.7275 12.068 11.1097C11.4959 11.492 11.0501 12.0353 10.7868 12.6709C10.5235 13.3066 10.4546 14.006 10.5888 14.6808C10.723 15.3556 11.0544 15.9755 11.5409 16.462C12.0274 16.9485 12.6472 17.2798 13.322 17.414C13.9968 17.5482 14.6963 17.4794 15.3319 17.2161C15.9676 16.9528 16.5109 16.5069 16.8931 15.9348C17.2754 15.3627 17.4794 14.6902 17.4794 14.0021C17.4794 13.0795 17.1129 12.1947 16.4605 11.5423C15.8081 10.8899 14.9233 10.5234 14.0007 10.5234ZM14.0007 16.2602C13.5541 16.2602 13.1175 16.1278 12.7462 15.8797C12.3748 15.6315 12.0854 15.2789 11.9145 14.8663C11.7436 14.4537 11.6989 13.9996 11.786 13.5616C11.8731 13.1236 12.0882 12.7213 12.404 12.4055C12.7198 12.0897 13.1221 11.8746 13.5602 11.7875C13.9982 11.7003 14.4522 11.7451 14.8648 11.916C15.2774 12.0869 15.6301 12.3763 15.8782 12.7476C16.1263 13.119 16.2587 13.5555 16.2587 14.0021C16.2587 14.601 16.0208 15.1754 15.5974 15.5988C15.1739 16.0223 14.5996 16.2602 14.0007 16.2602Z" fill="white"/>
<path d="M17.6166 11.1981C18.0656 11.1981 18.4295 10.8341 18.4295 10.3852C18.4295 9.93621 18.0656 9.57227 17.6166 9.57227C17.1677 9.57227 16.8037 9.93621 16.8037 10.3852C16.8037 10.8341 17.1677 11.1981 17.6166 11.1981Z" fill="white"/>
</svg>
