<svg width="120" height="24" viewBox="0 0 120 24" fill="none" xmlns="http://www.w3.org/2000/svg">
<path d="M21 10.2067C20.9911 10.4187 20.879 10.6608 20.6616 10.852C19.791 11.6167 18.9199 12.3808 18.0484 13.1441C17.6415 13.5012 17.234 13.8577 16.826 14.2136C16.7677 14.2643 16.7528 14.3092 16.7708 14.3879C17.084 15.7566 17.3947 17.126 17.7028 18.4959C17.7652 18.7712 17.8266 19.047 17.894 19.3214C17.9923 19.7277 17.8668 20.1292 17.5501 20.3565C17.2017 20.6064 16.8317 20.6227 16.4634 20.4043C15.2903 19.7069 14.1187 19.0067 12.9486 18.3037C12.6754 18.1405 12.3989 17.9811 12.1302 17.8119C12.0404 17.7553 11.9751 17.7548 11.8829 17.8102C10.4599 18.6644 9.03387 19.5133 7.61258 20.3672C7.31073 20.5484 7.00243 20.6165 6.6688 20.4795C6.22738 20.2984 5.99675 19.8343 6.10645 19.352C6.41666 17.9868 6.72735 16.6217 7.03852 15.2566C7.104 14.9698 7.16256 14.6809 7.23354 14.3962C7.25409 14.314 7.23975 14.2655 7.17737 14.2112C6.64267 13.7462 6.10932 13.2795 5.57732 12.8112C4.8319 12.1569 4.08362 11.507 3.3425 10.8479C3.03994 10.5793 2.92522 10.2363 3.04926 9.84414C3.1733 9.45195 3.45053 9.21583 3.86399 9.17329C4.59674 9.09825 5.33068 9.03539 6.06415 8.96823C6.78973 8.90179 7.51531 8.83583 8.24089 8.77035C8.48275 8.7486 8.72461 8.72422 8.96671 8.70582C9.04462 8.70008 9.08621 8.66591 9.11536 8.59493C9.77259 7.05056 10.4309 5.50683 11.0904 3.96374C11.2725 3.53713 11.5978 3.29886 12.0112 3.30961C12.4247 3.32037 12.723 3.52232 12.8869 3.90208C13.3331 4.93524 13.7736 5.97079 14.2159 7.00587C14.4411 7.53165 14.6667 8.05887 14.888 8.58704C14.9219 8.6683 14.9704 8.69985 15.0553 8.70654C15.6384 8.75593 16.2214 8.80771 16.8042 8.86188C17.6528 8.939 18.5013 9.01675 19.3497 9.09514C19.6193 9.11904 19.8891 9.14294 20.158 9.17305C20.647 9.23089 21.0038 9.63885 21 10.2067Z" fill="#F09C1E"/>
<path d="M45 10.2067C44.9911 10.4187 44.879 10.6608 44.6616 10.852C43.791 11.6167 42.9199 12.3808 42.0484 13.1441C41.6415 13.5012 41.234 13.8577 40.826 14.2136C40.7677 14.2643 40.7528 14.3092 40.7708 14.3879C41.084 15.7566 41.3947 17.126 41.7028 18.4959C41.7652 18.7712 41.8266 19.047 41.894 19.3214C41.9923 19.7277 41.8668 20.1292 41.5501 20.3565C41.2017 20.6064 40.8317 20.6227 40.4634 20.4043C39.2903 19.7069 38.1187 19.0067 36.9486 18.3037C36.6754 18.1405 36.3989 17.9811 36.1302 17.8119C36.0404 17.7553 35.9751 17.7548 35.8829 17.8102C34.4599 18.6644 33.0339 19.5133 31.6126 20.3672C31.3107 20.5484 31.0024 20.6165 30.6688 20.4795C30.2274 20.2984 29.9968 19.8343 30.1065 19.352C30.4167 17.9868 30.7274 16.6217 31.0385 15.2566C31.104 14.9698 31.1626 14.6809 31.2335 14.3962C31.2541 14.314 31.2398 14.2655 31.1774 14.2112C30.6427 13.7462 30.1093 13.2795 29.5773 12.8112C28.8319 12.1569 28.0836 11.507 27.3425 10.8479C27.0399 10.5793 26.9252 10.2363 27.0493 9.84414C27.1733 9.45195 27.4505 9.21583 27.864 9.17329C28.5967 9.09825 29.3307 9.03539 30.0641 8.96823C30.7897 8.90179 31.5153 8.83583 32.2409 8.77035C32.4827 8.7486 32.7246 8.72422 32.9667 8.70582C33.0446 8.70008 33.0862 8.66591 33.1154 8.59493C33.7726 7.05056 34.4309 5.50683 35.0904 3.96374C35.2725 3.53713 35.5978 3.29886 36.0112 3.30961C36.4247 3.32037 36.723 3.52232 36.8869 3.90208C37.3331 4.93524 37.7736 5.97079 38.2159 7.00587C38.4411 7.53165 38.6667 8.05887 38.888 8.58704C38.9219 8.6683 38.9704 8.69985 39.0553 8.70654C39.6384 8.75593 40.2214 8.80771 40.8042 8.86188C41.6528 8.939 42.5013 9.01675 43.3497 9.09514C43.6193 9.11904 43.8891 9.14294 44.158 9.17305C44.647 9.23089 45.0038 9.63885 45 10.2067Z" fill="#F09C1E"/>
<path d="M69 10.2067C68.9911 10.4187 68.879 10.6608 68.6616 10.852C67.791 11.6167 66.9199 12.3808 66.0484 13.1441C65.6415 13.5012 65.234 13.8577 64.826 14.2136C64.7677 14.2643 64.7528 14.3092 64.7708 14.3879C65.084 15.7566 65.3947 17.126 65.7028 18.4959C65.7652 18.7712 65.8266 19.047 65.894 19.3214C65.9923 19.7277 65.8668 20.1292 65.5501 20.3565C65.2017 20.6064 64.8317 20.6227 64.4634 20.4043C63.2903 19.7069 62.1187 19.0067 60.9486 18.3037C60.6754 18.1405 60.3989 17.9811 60.1302 17.8119C60.0404 17.7553 59.9751 17.7548 59.8829 17.8102C58.4599 18.6644 57.0339 19.5133 55.6126 20.3672C55.3107 20.5484 55.0024 20.6165 54.6688 20.4795C54.2274 20.2984 53.9968 19.8343 54.1065 19.352C54.4167 17.9868 54.7274 16.6217 55.0385 15.2566C55.104 14.9698 55.1626 14.6809 55.2335 14.3962C55.2541 14.314 55.2398 14.2655 55.1774 14.2112C54.6427 13.7462 54.1093 13.2795 53.5773 12.8112C52.8319 12.1569 52.0836 11.507 51.3425 10.8479C51.0399 10.5793 50.9252 10.2363 51.0493 9.84414C51.1733 9.45195 51.4505 9.21583 51.864 9.17329C52.5967 9.09825 53.3307 9.03539 54.0641 8.96823C54.7897 8.90179 55.5153 8.83583 56.2409 8.77035C56.4827 8.7486 56.7246 8.72422 56.9667 8.70582C57.0446 8.70008 57.0862 8.66591 57.1154 8.59493C57.7726 7.05056 58.4309 5.50683 59.0904 3.96374C59.2725 3.53713 59.5978 3.29886 60.0112 3.30961C60.4247 3.32037 60.723 3.52232 60.8869 3.90208C61.3331 4.93524 61.7736 5.97079 62.2159 7.00587C62.4411 7.53165 62.6667 8.05887 62.888 8.58704C62.9219 8.6683 62.9704 8.69985 63.0553 8.70654C63.6384 8.75593 64.2214 8.80771 64.8042 8.86188C65.6528 8.939 66.5013 9.01675 67.3497 9.09514C67.6193 9.11904 67.8891 9.14294 68.158 9.17305C68.647 9.23089 69.0038 9.63885 69 10.2067Z" fill="#F09C1E"/>
<path d="M93 10.2067C92.9911 10.4187 92.879 10.6608 92.6616 10.852C91.791 11.6167 90.9199 12.3808 90.0484 13.1441C89.6415 13.5012 89.234 13.8577 88.826 14.2136C88.7677 14.2643 88.7528 14.3092 88.7708 14.3879C89.084 15.7566 89.3947 17.126 89.7028 18.4959C89.7652 18.7712 89.8266 19.047 89.894 19.3214C89.9923 19.7277 89.8668 20.1292 89.5501 20.3565C89.2017 20.6064 88.8317 20.6227 88.4634 20.4043C87.2903 19.7069 86.1187 19.0067 84.9486 18.3037C84.6754 18.1405 84.3989 17.9811 84.1302 17.8119C84.0404 17.7553 83.9751 17.7548 83.8829 17.8102C82.4599 18.6644 81.0339 19.5133 79.6126 20.3672C79.3107 20.5484 79.0024 20.6165 78.6688 20.4795C78.2274 20.2984 77.9968 19.8343 78.1065 19.352C78.4167 17.9868 78.7274 16.6217 79.0385 15.2566C79.104 14.9698 79.1626 14.6809 79.2335 14.3962C79.2541 14.314 79.2398 14.2655 79.1774 14.2112C78.6427 13.7462 78.1093 13.2795 77.5773 12.8112C76.8319 12.1569 76.0836 11.507 75.3425 10.8479C75.0399 10.5793 74.9252 10.2363 75.0493 9.84414C75.1733 9.45195 75.4505 9.21583 75.864 9.17329C76.5967 9.09825 77.3307 9.03539 78.0641 8.96823C78.7897 8.90179 79.5153 8.83583 80.2409 8.77035C80.4827 8.7486 80.7246 8.72422 80.9667 8.70582C81.0446 8.70008 81.0862 8.66591 81.1154 8.59493C81.7726 7.05056 82.4309 5.50683 83.0904 3.96374C83.2725 3.53713 83.5978 3.29886 84.0112 3.30961C84.4247 3.32037 84.723 3.52232 84.8869 3.90208C85.3331 4.93524 85.7736 5.97079 86.2159 7.00587C86.4411 7.53165 86.6667 8.05887 86.888 8.58704C86.9219 8.6683 86.9704 8.69985 87.0553 8.70654C87.6384 8.75593 88.2214 8.80771 88.8042 8.86188C89.6528 8.939 90.5013 9.01675 91.3497 9.09514C91.6193 9.11904 91.8891 9.14294 92.158 9.17305C92.647 9.23089 93.0038 9.63885 93 10.2067Z" fill="#F09C1E"/>
<path d="M117 10.2067C116.991 10.4187 116.879 10.6608 116.662 10.852C115.791 11.6167 114.92 12.3808 114.048 13.1441C113.641 13.5012 113.234 13.8577 112.826 14.2136C112.768 14.2643 112.753 14.3092 112.771 14.3879C113.084 15.7566 113.395 17.126 113.703 18.4959C113.765 18.7712 113.827 19.047 113.894 19.3214C113.992 19.7277 113.867 20.1292 113.55 20.3565C113.202 20.6064 112.832 20.6227 112.463 20.4043C111.29 19.7069 110.119 19.0067 108.949 18.3037C108.675 18.1405 108.399 17.9811 108.13 17.8119C108.04 17.7553 107.975 17.7548 107.883 17.8102C106.46 18.6644 105.034 19.5133 103.613 20.3672C103.311 20.5484 103.002 20.6165 102.669 20.4795C102.227 20.2984 101.997 19.8343 102.106 19.352C102.417 17.9868 102.727 16.6217 103.039 15.2566C103.104 14.9698 103.163 14.6809 103.234 14.3962C103.254 14.314 103.24 14.2655 103.177 14.2112C102.643 13.7462 102.109 13.2795 101.577 12.8112C100.832 12.1569 100.084 11.507 99.3425 10.8479C99.0399 10.5793 98.9252 10.2363 99.0493 9.84414C99.1733 9.45195 99.4505 9.21583 99.864 9.17329C100.597 9.09825 101.331 9.03539 102.064 8.96823C102.79 8.90179 103.515 8.83583 104.241 8.77035C104.483 8.7486 104.725 8.72422 104.967 8.70582C105.045 8.70008 105.086 8.66591 105.115 8.59493C105.773 7.05056 106.431 5.50683 107.09 3.96374C107.273 3.53713 107.598 3.29886 108.011 3.30961C108.425 3.32037 108.723 3.52232 108.887 3.90208C109.333 4.93524 109.774 5.97079 110.216 7.00587C110.441 7.53165 110.667 8.05887 110.888 8.58704C110.922 8.6683 110.97 8.69985 111.055 8.70654C111.638 8.75593 112.221 8.80771 112.804 8.86188C113.653 8.939 114.501 9.01675 115.35 9.09514C115.619 9.11904 115.889 9.14294 116.158 9.17305C116.647 9.23089 117.004 9.63885 117 10.2067Z" fill="#F09C1E"/>
</svg>
