<svg width="28" height="28" viewBox="0 0 28 28" fill="none" xmlns="http://www.w3.org/2000/svg">
<circle cx="14" cy="14" r="14" fill="#191D23"/>
<path d="M20.2066 10.9831C19.7876 11.1693 19.3453 11.2857 18.8797 11.3556C19.3453 11.0762 19.7178 10.6339 19.8807 10.0985C19.4384 10.3546 18.9496 10.5408 18.4142 10.6572C17.9951 10.2149 17.3899 9.93555 16.7381 9.93555C15.481 9.93555 14.4567 10.9598 14.4567 12.2169C14.4567 12.4031 14.48 12.5661 14.5266 12.729C12.641 12.6359 10.9416 11.728 9.80092 10.3313C9.61469 10.6805 9.4983 11.0529 9.4983 11.472C9.4983 12.2634 9.89404 12.9618 10.5226 13.3808C10.1501 13.3576 9.80092 13.2644 9.47502 13.1015V13.1248C9.47502 14.2422 10.2665 15.1733 11.3141 15.3828C11.1278 15.4294 10.9183 15.4527 10.7088 15.4527C10.5691 15.4527 10.4062 15.4294 10.2665 15.4061C10.5691 16.314 11.4072 16.9891 12.4082 16.9891C11.6167 17.5943 10.639 17.9668 9.56813 17.9668C9.3819 17.9668 9.19567 17.9668 9.03271 17.9435C10.057 18.5953 11.2442 18.9678 12.5478 18.9678C16.7613 18.9678 19.066 15.476 19.066 12.4497C19.066 12.3566 19.066 12.2402 19.066 12.1471C19.5083 11.8444 19.904 11.4487 20.2066 10.9831Z" fill="white"/>
</svg>
