<svg width="513" height="289" viewBox="0 0 513 289" fill="none" xmlns="http://www.w3.org/2000/svg">
<rect x="0.657227" y="0.971436" width="511.396" height="287.057" fill="#323334"/>
<rect width="511" height="115.788" transform="matrix(-1 0 0 1 511.657 172.184)" fill="url(#paint0_linear_56_1377)" style="mix-blend-mode:multiply"/>
<rect x="511.657" y="116.759" width="511" height="115.788" transform="rotate(180 511.657 116.759)" fill="url(#paint1_linear_56_1377)"/>
<g clip-path="url(#clip0_56_1377)">
<path d="M295.824 124.074C295.348 122.315 294.419 120.711 293.131 119.422C291.842 118.133 290.238 117.204 288.479 116.728C282.038 114.971 256.115 114.971 256.115 114.971C256.115 114.971 230.191 115.025 223.75 116.781C221.991 117.257 220.387 118.186 219.098 119.475C217.809 120.764 216.881 122.368 216.405 124.127C214.457 135.572 213.701 153.01 216.458 163.997C216.934 165.756 217.863 167.36 219.152 168.649C220.441 169.937 222.044 170.866 223.804 171.342C230.245 173.099 256.168 173.099 256.168 173.099C256.168 173.099 282.091 173.099 288.532 171.342C290.291 170.866 291.895 169.938 293.184 168.649C294.473 167.36 295.401 165.756 295.877 163.997C297.932 152.536 298.565 135.109 295.824 124.074V124.074Z" fill="#FF0000"/>
<path d="M247.864 156.491L269.369 144.035L247.864 131.579V156.491Z" fill="white"/>
</g>
<path d="M485.123 256.612H477.886V259.024H482.71V263.849H485.123V256.612Z" fill="#EAEAEA"/>
<path d="M485.123 268.673H482.71V273.498H477.886V275.91H485.123V268.673Z" fill="#EAEAEA"/>
<path d="M468.237 263.849V259.024H473.061V256.612H465.825V263.849H468.237Z" fill="#EAEAEA"/>
<path d="M465.825 268.673V275.91H473.061V273.498H468.237V268.673H465.825Z" fill="#EAEAEA"/>
<path d="M485.726 256.612V256.009H485.123H477.886H477.283V256.612V259.024V259.627H477.886H482.107V263.849V264.452H482.71H485.123H485.726V263.849V256.612ZM485.726 268.673V268.07H485.123H482.71H482.107V268.673V272.895H477.886H477.283V273.498V275.91V276.513H477.886H485.123H485.726V275.91V268.673ZM468.237 264.452H468.84V263.849V259.627H473.061H473.665V259.024V256.612V256.009H473.061H465.825H465.222V256.612V263.849V264.452H465.825H468.237ZM465.825 268.07H465.222V268.673V275.91V276.513H465.825H473.061H473.665V275.91V273.498V272.895H473.061H468.84V268.673V268.07H468.237H465.825Z" stroke="black" stroke-opacity="0.1" stroke-width="1.20612"/>
<mask id="path-8-outside-1_56_1377" maskUnits="userSpaceOnUse" x="416.786" y="253.406" width="30" height="25" fill="black">
<rect fill="white" x="416.786" y="253.406" width="30" height="25"/>
<path fill-rule="evenodd" clip-rule="evenodd" d="M419.992 255.406C419.326 255.406 418.786 255.946 418.786 256.612V260.231C418.786 260.897 419.326 261.437 419.992 261.437C420.658 261.437 421.198 260.897 421.198 260.231V259.024C421.198 258.358 421.738 257.818 422.404 257.818H441.702C442.369 257.818 442.909 258.358 442.909 259.024V273.498C442.909 274.164 442.369 274.704 441.702 274.704H435.672C435.006 274.704 434.466 275.244 434.466 275.91C434.466 276.576 435.006 277.116 435.672 277.116H444.115C444.781 277.116 445.321 276.576 445.321 275.91V256.612C445.321 255.946 444.781 255.406 444.115 255.406H419.992ZM429.575 275.912C429.648 276.574 430.181 277.116 430.847 277.116C431.513 277.116 432.059 276.574 431.999 275.911C431.426 269.545 426.357 264.476 419.991 263.903C419.328 263.843 418.786 264.389 418.786 265.055C418.786 265.721 419.328 266.254 419.99 266.327C425.023 266.883 429.02 270.879 429.575 275.912ZM426.023 277.116C426.689 277.116 427.238 276.573 427.144 275.914C426.616 272.213 423.689 269.286 419.989 268.758C419.329 268.664 418.786 269.213 418.786 269.88C418.786 270.546 419.332 271.073 419.985 271.205C422.354 271.682 424.22 273.549 424.698 275.918C424.829 276.571 425.357 277.116 426.023 277.116ZM418.786 274.704C418.786 274.038 419.341 273.478 419.97 273.696C421.016 274.058 421.844 274.886 422.206 275.932C422.424 276.561 421.865 277.116 421.198 277.116H419.992C419.326 277.116 418.786 276.576 418.786 275.91V274.704Z"/>
</mask>
<path fill-rule="evenodd" clip-rule="evenodd" d="M419.992 255.406C419.326 255.406 418.786 255.946 418.786 256.612V260.231C418.786 260.897 419.326 261.437 419.992 261.437C420.658 261.437 421.198 260.897 421.198 260.231V259.024C421.198 258.358 421.738 257.818 422.404 257.818H441.702C442.369 257.818 442.909 258.358 442.909 259.024V273.498C442.909 274.164 442.369 274.704 441.702 274.704H435.672C435.006 274.704 434.466 275.244 434.466 275.91C434.466 276.576 435.006 277.116 435.672 277.116H444.115C444.781 277.116 445.321 276.576 445.321 275.91V256.612C445.321 255.946 444.781 255.406 444.115 255.406H419.992ZM429.575 275.912C429.648 276.574 430.181 277.116 430.847 277.116C431.513 277.116 432.059 276.574 431.999 275.911C431.426 269.545 426.357 264.476 419.991 263.903C419.328 263.843 418.786 264.389 418.786 265.055C418.786 265.721 419.328 266.254 419.99 266.327C425.023 266.883 429.02 270.879 429.575 275.912ZM426.023 277.116C426.689 277.116 427.238 276.573 427.144 275.914C426.616 272.213 423.689 269.286 419.989 268.758C419.329 268.664 418.786 269.213 418.786 269.88C418.786 270.546 419.332 271.073 419.985 271.205C422.354 271.682 424.22 273.549 424.698 275.918C424.829 276.571 425.357 277.116 426.023 277.116ZM418.786 274.704C418.786 274.038 419.341 273.478 419.97 273.696C421.016 274.058 421.844 274.886 422.206 275.932C422.424 276.561 421.865 277.116 421.198 277.116H419.992C419.326 277.116 418.786 276.576 418.786 275.91V274.704Z" fill="#EAEAEA"/>
<path d="M419.97 273.696L420.365 272.556L419.97 273.696ZM419.985 271.205L419.746 272.387L419.985 271.205ZM427.144 275.914L425.95 276.084L427.144 275.914ZM419.989 268.758L419.818 269.952L419.989 268.758ZM419.99 266.327L419.858 267.526L419.99 266.327ZM419.991 263.903L419.883 265.104L419.991 263.903ZM429.575 275.912L428.376 276.044L429.575 275.912ZM431.999 275.911L433.201 275.803L431.999 275.911ZM419.992 256.612V254.2C418.66 254.2 417.58 255.28 417.58 256.612H419.992ZM419.992 260.231V256.612H417.58V260.231H419.992ZM419.992 259.024V260.231H422.405V259.024H419.992ZM441.702 256.612H422.404V259.024H441.702V256.612ZM444.115 273.498V259.024H441.702V273.498H444.115ZM435.672 275.91H441.702V273.498H435.672V275.91ZM444.115 275.91H435.672V278.322H444.115V275.91ZM444.115 275.91V278.322C445.447 278.322 446.527 277.242 446.527 275.91H444.115ZM444.115 256.612V275.91H446.527V256.612H444.115ZM444.115 256.612H446.527C446.527 255.28 445.447 254.2 444.115 254.2V256.612ZM419.992 256.612H444.115V254.2H419.992V256.612ZM419.883 265.104C425.668 265.625 430.277 270.234 430.798 276.019L433.201 275.803C432.575 268.857 427.046 263.327 420.1 262.702L419.883 265.104ZM430.774 275.78C430.157 270.185 425.717 265.746 420.123 265.128L419.858 267.526C424.33 268.02 427.883 271.573 428.376 276.044L430.774 275.78ZM419.818 269.952C422.988 270.404 425.498 272.914 425.95 276.084L428.338 275.743C427.735 271.512 424.39 268.168 420.159 267.564L419.818 269.952ZM425.88 275.679C425.306 272.834 423.068 270.596 420.223 270.022L419.746 272.387C421.639 272.769 423.134 274.263 423.515 276.156L425.88 275.679ZM423.346 275.537C422.863 274.142 421.76 273.039 420.365 272.556L419.576 274.836C420.272 275.077 420.825 275.63 421.066 276.327L423.346 275.537ZM419.992 278.322H421.198V275.91H419.992V278.322ZM417.58 274.704V275.91H419.992V274.704H417.58ZM419.992 275.91H419.992H417.58C417.58 277.242 418.66 278.322 419.992 278.322V275.91ZM420.365 272.556C419.591 272.289 418.843 272.515 418.335 272.973C417.851 273.409 417.58 274.047 417.58 274.704H419.992C419.992 274.704 419.992 274.708 419.989 274.714C419.987 274.72 419.977 274.74 419.95 274.764C419.921 274.79 419.868 274.826 419.789 274.844C419.706 274.863 419.628 274.854 419.576 274.836L420.365 272.556ZM421.066 276.327C421.048 276.274 421.04 276.197 421.059 276.113C421.077 276.034 421.112 275.981 421.138 275.953C421.163 275.925 421.182 275.916 421.188 275.913C421.195 275.91 421.198 275.91 421.198 275.91V278.322C421.856 278.322 422.494 278.051 422.93 277.568C423.388 277.06 423.614 276.311 423.346 275.537L421.066 276.327ZM423.515 276.156C423.731 277.225 424.645 278.322 426.023 278.322V275.91C426.022 275.91 426.023 275.91 426.024 275.91C426.025 275.911 426.025 275.911 426.023 275.91C426.019 275.908 426.006 275.902 425.987 275.884C425.944 275.844 425.898 275.771 425.88 275.679L423.515 276.156ZM417.58 269.88C417.58 271.258 418.677 272.172 419.746 272.387L420.223 270.022C420.132 270.004 420.059 269.958 420.019 269.916C420.001 269.897 419.994 269.883 419.993 269.88C419.992 269.878 419.992 269.878 419.992 269.878C419.992 269.88 419.992 269.88 419.992 269.88H417.58ZM425.95 276.084C425.947 276.06 425.948 276.027 425.96 275.993C425.971 275.961 425.986 275.94 425.997 275.928C426.017 275.908 426.028 275.91 426.023 275.91V278.322C427.301 278.322 428.552 277.245 428.338 275.743L425.95 276.084ZM420.159 267.564C418.657 267.35 417.58 268.602 417.58 269.88H419.992C419.992 269.874 419.995 269.885 419.974 269.905C419.962 269.917 419.941 269.932 419.91 269.943C419.876 269.954 419.843 269.956 419.818 269.952L420.159 267.564ZM433.26 275.91C433.26 277.242 434.34 278.322 435.672 278.322V275.91H435.672H433.26ZM435.672 273.498C434.34 273.498 433.26 274.578 433.26 275.91H435.672V273.498ZM441.702 273.498L441.702 273.498V275.91C443.035 275.91 444.115 274.83 444.115 273.498H441.702ZM417.58 265.055C417.58 266.417 418.669 267.395 419.858 267.526L420.123 265.128C420.072 265.123 420.03 265.099 420.007 265.075C419.996 265.064 419.993 265.057 419.992 265.055C419.992 265.055 419.992 265.056 419.992 265.055H417.58ZM441.702 259.024V259.024H444.115C444.115 257.692 443.035 256.612 441.702 256.612V259.024ZM420.1 262.702C418.658 262.572 417.58 263.754 417.58 265.055H419.992C419.992 265.051 419.993 265.059 419.981 265.072C419.974 265.079 419.961 265.088 419.941 265.096C419.919 265.104 419.898 265.106 419.883 265.104L420.1 262.702ZM422.405 259.024L422.404 259.024V256.612C421.072 256.612 419.992 257.692 419.992 259.024H422.405ZM430.847 275.91C430.846 275.91 430.848 275.91 430.847 275.91C430.846 275.91 430.838 275.906 430.827 275.896C430.803 275.872 430.78 275.831 430.774 275.78L428.376 276.044C428.508 277.234 429.485 278.322 430.847 278.322V275.91ZM419.992 262.643C421.325 262.643 422.405 261.563 422.405 260.231H419.992V260.231V262.643ZM430.847 278.322C432.148 278.322 433.331 277.244 433.201 275.803L430.798 276.019C430.797 276.004 430.799 275.983 430.807 275.962C430.814 275.942 430.824 275.929 430.831 275.922C430.843 275.909 430.851 275.91 430.847 275.91V278.322ZM417.58 260.231C417.58 261.563 418.66 262.643 419.992 262.643V260.231H417.58Z" fill="black" fill-opacity="0.1" mask="url(#path-8-outside-1_56_1377)"/>
<mask id="path-10-outside-2_56_1377" maskUnits="userSpaceOnUse" x="374.572" y="255.818" width="28" height="21" fill="black">
<rect fill="white" x="374.572" y="255.818" width="28" height="21"/>
<path fill-rule="evenodd" clip-rule="evenodd" d="M400.694 257.818H376.572V274.704H400.694V257.818ZM398.282 260.23H378.984V272.291H398.282V260.23Z"/>
</mask>
<path fill-rule="evenodd" clip-rule="evenodd" d="M400.694 257.818H376.572V274.704H400.694V257.818ZM398.282 260.23H378.984V272.291H398.282V260.23Z" fill="#EAEAEA"/>
<path d="M376.572 257.818V256.612H375.366V257.818H376.572ZM400.694 257.818H401.9V256.612H400.694V257.818ZM376.572 274.704H375.366V275.91H376.572V274.704ZM400.694 274.704V275.91H401.9V274.704H400.694ZM378.984 260.23V259.024H377.778V260.23H378.984ZM398.282 260.23H399.488V259.024H398.282V260.23ZM378.984 272.291H377.778V273.498H378.984V272.291ZM398.282 272.291V273.498H399.488V272.291H398.282ZM376.572 259.024H400.694V256.612H376.572V259.024ZM377.778 274.704V257.818H375.366V274.704H377.778ZM400.694 273.498H376.572V275.91H400.694V273.498ZM399.488 257.818V274.704H401.9V257.818H399.488ZM378.984 261.436H398.282V259.024H378.984V261.436ZM380.19 272.291V260.23H377.778V272.291H380.19ZM398.282 271.085H378.984V273.498H398.282V271.085ZM397.076 260.23V272.291H399.488V260.23H397.076Z" fill="black" fill-opacity="0.1" mask="url(#path-10-outside-2_56_1377)"/>
<mask id="path-12-outside-3_56_1377" maskUnits="userSpaceOnUse" x="334.77" y="254.612" width="21" height="23" fill="black">
<rect fill="white" x="334.77" y="254.612" width="21" height="23"/>
<path fill-rule="evenodd" clip-rule="evenodd" d="M343.171 257.818C343.171 257.152 343.711 256.612 344.377 256.612H346.79C347.456 256.612 347.996 257.152 347.996 257.818V258.583C347.996 259.094 348.323 259.541 348.781 259.767C348.878 259.815 348.973 259.865 349.067 259.917C349.516 260.163 350.07 260.175 350.489 259.882L351.116 259.442C351.662 259.06 352.414 259.193 352.796 259.739L354.179 261.715C354.561 262.26 354.429 263.012 353.883 263.394L353.256 263.834C352.837 264.127 352.659 264.65 352.736 265.156C352.792 265.516 352.82 265.885 352.82 266.261C352.82 266.637 352.792 267.006 352.736 267.367C352.659 267.872 352.838 268.396 353.256 268.689L353.883 269.128C354.429 269.51 354.561 270.262 354.179 270.808L352.796 272.783C352.414 273.329 351.662 273.462 351.116 273.08L350.489 272.64C350.07 272.347 349.516 272.359 349.068 272.606C348.973 272.657 348.878 272.707 348.781 272.755C348.323 272.981 347.996 273.428 347.996 273.939V274.704C347.996 275.37 347.456 275.91 346.79 275.91H344.377C343.711 275.91 343.171 275.37 343.171 274.704V273.939C343.171 273.428 342.844 272.981 342.386 272.755C342.289 272.707 342.194 272.657 342.1 272.606C341.651 272.359 341.097 272.347 340.678 272.641L340.051 273.08C339.506 273.462 338.753 273.329 338.371 272.783L336.988 270.808C336.606 270.262 336.738 269.51 337.284 269.128L337.911 268.689C338.33 268.396 338.508 267.872 338.431 267.367C338.375 267.006 338.347 266.637 338.347 266.261C338.347 265.885 338.375 265.516 338.431 265.156C338.508 264.65 338.33 264.127 337.911 263.834L337.284 263.394C336.738 263.012 336.606 262.26 336.988 261.715L338.371 259.739C338.754 259.193 339.506 259.06 340.051 259.442L340.678 259.882C341.098 260.175 341.652 260.163 342.1 259.917C342.194 259.865 342.289 259.815 342.386 259.767C342.844 259.541 343.171 259.094 343.171 258.583V257.818ZM345.584 268.673C346.916 268.673 347.996 267.593 347.996 266.261C347.996 264.929 346.916 263.849 345.584 263.849C344.251 263.849 343.171 264.929 343.171 266.261C343.171 267.593 344.251 268.673 345.584 268.673Z"/>
</mask>
<path fill-rule="evenodd" clip-rule="evenodd" d="M343.171 257.818C343.171 257.152 343.711 256.612 344.377 256.612H346.79C347.456 256.612 347.996 257.152 347.996 257.818V258.583C347.996 259.094 348.323 259.541 348.781 259.767C348.878 259.815 348.973 259.865 349.067 259.917C349.516 260.163 350.07 260.175 350.489 259.882L351.116 259.442C351.662 259.06 352.414 259.193 352.796 259.739L354.179 261.715C354.561 262.26 354.429 263.012 353.883 263.394L353.256 263.834C352.837 264.127 352.659 264.65 352.736 265.156C352.792 265.516 352.82 265.885 352.82 266.261C352.82 266.637 352.792 267.006 352.736 267.367C352.659 267.872 352.838 268.396 353.256 268.689L353.883 269.128C354.429 269.51 354.561 270.262 354.179 270.808L352.796 272.783C352.414 273.329 351.662 273.462 351.116 273.08L350.489 272.64C350.07 272.347 349.516 272.359 349.068 272.606C348.973 272.657 348.878 272.707 348.781 272.755C348.323 272.981 347.996 273.428 347.996 273.939V274.704C347.996 275.37 347.456 275.91 346.79 275.91H344.377C343.711 275.91 343.171 275.37 343.171 274.704V273.939C343.171 273.428 342.844 272.981 342.386 272.755C342.289 272.707 342.194 272.657 342.1 272.606C341.651 272.359 341.097 272.347 340.678 272.641L340.051 273.08C339.506 273.462 338.753 273.329 338.371 272.783L336.988 270.808C336.606 270.262 336.738 269.51 337.284 269.128L337.911 268.689C338.33 268.396 338.508 267.872 338.431 267.367C338.375 267.006 338.347 266.637 338.347 266.261C338.347 265.885 338.375 265.516 338.431 265.156C338.508 264.65 338.33 264.127 337.911 263.834L337.284 263.394C336.738 263.012 336.606 262.26 336.988 261.715L338.371 259.739C338.754 259.193 339.506 259.06 340.051 259.442L340.678 259.882C341.098 260.175 341.652 260.163 342.1 259.917C342.194 259.865 342.289 259.815 342.386 259.767C342.844 259.541 343.171 259.094 343.171 258.583V257.818ZM345.584 268.673C346.916 268.673 347.996 267.593 347.996 266.261C347.996 264.929 346.916 263.849 345.584 263.849C344.251 263.849 343.171 264.929 343.171 266.261C343.171 267.593 344.251 268.673 345.584 268.673Z" fill="#EAEAEA"/>
<path d="M342.386 259.767L341.852 258.686L342.386 259.767ZM337.284 263.394L336.592 264.382L337.284 263.394ZM336.988 261.715L336 261.023L336.988 261.715ZM337.911 263.834L337.219 264.822L337.911 263.834ZM337.911 268.689L337.219 267.701L337.911 268.689ZM338.371 272.783L339.359 272.092L338.371 272.783ZM342.1 272.606L342.681 271.549L342.1 272.606ZM340.678 272.641L341.37 273.628L340.678 272.641ZM342.386 272.755L342.92 271.673L342.386 272.755ZM348.781 272.755L349.315 273.837L348.781 272.755ZM352.796 272.783L351.808 272.092L352.796 272.783ZM351.116 273.08L350.424 274.068L351.116 273.08ZM353.883 269.128L354.575 268.14L353.883 269.128ZM354.179 270.808L353.191 270.116L354.179 270.808ZM352.736 267.367L353.929 267.549L352.736 267.367ZM353.256 268.689L352.564 269.677L353.256 268.689ZM353.256 263.834L353.948 264.822L353.256 263.834ZM353.883 263.394L354.575 264.382L353.883 263.394ZM351.116 259.442L351.808 260.43L351.116 259.442ZM352.796 259.739L353.784 259.047L352.796 259.739ZM349.067 259.917L348.486 260.973L349.067 259.917ZM340.678 259.882L341.37 258.894L340.678 259.882ZM342.1 259.917L341.518 258.86L342.1 259.917ZM350.489 272.64L351.181 271.653L350.489 272.64ZM349.068 272.606L349.649 273.662L349.068 272.606ZM346.79 255.406H344.377V257.818H346.79V255.406ZM349.202 258.583V257.818H346.79V258.583H349.202ZM349.649 258.86C349.539 258.799 349.428 258.741 349.315 258.686L348.248 260.849C348.328 260.889 348.407 260.93 348.486 260.973L349.649 258.86ZM350.424 258.454L349.797 258.894L351.18 260.87L351.808 260.43L350.424 258.454ZM355.167 261.023L353.784 259.047L351.808 260.43L353.191 262.406L355.167 261.023ZM353.948 264.822L354.575 264.382L353.191 262.406L352.564 262.845L353.948 264.822ZM354.026 266.261C354.026 265.824 353.993 265.394 353.929 264.973L351.544 265.338C351.59 265.638 351.614 265.947 351.614 266.261H354.026ZM353.929 267.549C353.993 267.129 354.026 266.698 354.026 266.261H351.614C351.614 266.576 351.59 266.884 351.544 267.184L353.929 267.549ZM354.575 268.14L353.948 267.701L352.564 269.677L353.191 270.116L354.575 268.14ZM353.784 273.475L355.167 271.499L353.191 270.116L351.808 272.092L353.784 273.475ZM349.797 273.628L350.424 274.068L351.808 272.092L351.181 271.653L349.797 273.628ZM349.315 273.837C349.428 273.781 349.539 273.723 349.649 273.662L348.486 271.549C348.407 271.592 348.328 271.634 348.247 271.673L349.315 273.837ZM349.202 274.704V273.939H346.79V274.704H349.202ZM344.377 277.116H346.79V274.704H344.377V277.116ZM341.965 273.939V274.704H344.377V273.939H341.965ZM341.518 273.662C341.628 273.723 341.739 273.781 341.852 273.837L342.92 271.673C342.839 271.634 342.76 271.592 342.681 271.549L341.518 273.662ZM340.743 274.068L341.37 273.628L339.986 271.653L339.359 272.092L340.743 274.068ZM336 271.499L337.383 273.475L339.359 272.092L337.976 270.116L336 271.499ZM337.219 267.701L336.592 268.14L337.976 270.116L338.603 269.677L337.219 267.701ZM337.141 266.261C337.141 266.698 337.174 267.129 337.239 267.549L339.623 267.184C339.577 266.884 339.553 266.576 339.553 266.261H337.141ZM337.239 264.973C337.174 265.393 337.141 265.824 337.141 266.261H339.553C339.553 265.947 339.577 265.639 339.623 265.338L337.239 264.973ZM336.592 264.382L337.219 264.822L338.603 262.845L337.976 262.406L336.592 264.382ZM337.383 259.047L336 261.023L337.976 262.406L339.359 260.43L337.383 259.047ZM341.37 258.894L340.743 258.454L339.359 260.43L339.987 260.87L341.37 258.894ZM341.852 258.686C341.739 258.741 341.628 258.799 341.518 258.86L342.681 260.973C342.76 260.93 342.839 260.889 342.92 260.849L341.852 258.686ZM341.965 257.818V258.583H344.377V257.818H341.965ZM346.79 266.261C346.79 266.927 346.25 267.467 345.584 267.467V269.88C347.582 269.88 349.202 268.26 349.202 266.261H346.79ZM345.584 265.055C346.25 265.055 346.79 265.595 346.79 266.261H349.202C349.202 264.263 347.582 262.643 345.584 262.643V265.055ZM344.377 266.261C344.377 265.595 344.917 265.055 345.584 265.055V262.643C343.585 262.643 341.965 264.263 341.965 266.261H344.377ZM345.584 267.467C344.917 267.467 344.377 266.927 344.377 266.261H341.965C341.965 268.26 343.585 269.88 345.584 269.88V267.467ZM342.92 260.849C343.715 260.456 344.377 259.631 344.377 258.583H341.965C341.965 258.576 341.969 258.581 341.954 258.603C341.937 258.627 341.904 258.66 341.852 258.686L342.92 260.849ZM337.976 262.406L337.976 262.406L336 261.023C335.236 262.114 335.501 263.618 336.592 264.382L337.976 262.406ZM339.623 265.338C339.757 264.461 339.461 263.446 338.603 262.845L337.219 264.822C337.213 264.817 337.22 264.817 337.229 264.842C337.239 264.869 337.247 264.916 337.239 264.973L339.623 265.338ZM338.603 269.677C339.461 269.076 339.757 268.061 339.623 267.184L337.239 267.549C337.247 267.606 337.239 267.653 337.229 267.68C337.22 267.705 337.213 267.705 337.219 267.701L338.603 269.677ZM337.976 270.116H337.976L336.592 268.14C335.501 268.904 335.236 270.408 336 271.499L337.976 270.116ZM339.359 272.092L339.359 272.092L337.383 273.475C338.148 274.567 339.652 274.832 340.743 274.068L339.359 272.092ZM342.681 271.549C341.902 271.12 340.845 271.051 339.986 271.653L341.37 273.628C341.364 273.633 341.366 273.627 341.392 273.627C341.421 273.626 341.468 273.635 341.518 273.662L342.681 271.549ZM344.377 273.939C344.377 272.891 343.715 272.066 342.92 271.673L341.852 273.837C341.904 273.862 341.937 273.895 341.954 273.92C341.969 273.941 341.965 273.947 341.965 273.939H344.377ZM344.377 274.704V274.704H341.965C341.965 276.036 343.045 277.116 344.377 277.116V274.704ZM346.79 274.704L346.79 274.704V277.116C348.122 277.116 349.202 276.036 349.202 274.704H346.79ZM348.247 271.673C347.452 272.066 346.79 272.891 346.79 273.939H349.202C349.202 273.947 349.198 273.941 349.213 273.92C349.23 273.895 349.263 273.862 349.315 273.837L348.247 271.673ZM351.808 272.092H351.808L350.424 274.068C351.515 274.832 353.02 274.567 353.784 273.475L351.808 272.092ZM353.191 270.116L355.167 271.499C355.932 270.408 355.666 268.904 354.575 268.14L353.191 270.116ZM351.544 267.184C351.41 268.061 351.706 269.076 352.564 269.677L353.948 267.701C353.954 267.705 353.948 267.705 353.938 267.68C353.928 267.653 353.92 267.606 353.929 267.549L351.544 267.184ZM352.564 262.845C351.706 263.446 351.41 264.461 351.544 265.338L353.929 264.973C353.92 264.916 353.928 264.869 353.938 264.842C353.948 264.817 353.954 264.817 353.948 264.822L352.564 262.845ZM353.191 262.406V262.406L354.575 264.382C355.666 263.618 355.931 262.114 355.167 261.023L353.191 262.406ZM351.808 260.43V260.43L353.784 259.047C353.02 257.956 351.515 257.69 350.424 258.454L351.808 260.43ZM348.486 260.973C349.264 261.402 350.321 261.471 351.18 260.87L349.797 258.894C349.803 258.889 349.801 258.895 349.775 258.896C349.745 258.896 349.699 258.888 349.649 258.86L348.486 260.973ZM346.79 258.583C346.79 259.631 347.452 260.456 348.248 260.849L349.315 258.686C349.263 258.66 349.23 258.627 349.213 258.603C349.198 258.581 349.202 258.576 349.202 258.583H346.79ZM339.987 260.87C340.846 261.471 341.903 261.402 342.681 260.973L341.518 258.86C341.468 258.888 341.422 258.896 341.392 258.896C341.367 258.895 341.364 258.889 341.37 258.894L339.987 260.87ZM344.377 255.406C343.045 255.406 341.965 256.486 341.965 257.818H344.377L344.377 257.818V255.406ZM351.181 271.653C350.322 271.051 349.265 271.12 348.486 271.549L349.649 273.662C349.699 273.635 349.746 273.626 349.775 273.627C349.801 273.627 349.803 273.633 349.797 273.628L351.181 271.653ZM339.359 260.43L340.743 258.454C339.652 257.69 338.148 257.956 337.383 259.047L339.359 260.43ZM346.79 257.818V257.818H349.202C349.202 256.486 348.122 255.406 346.79 255.406V257.818Z" fill="black" fill-opacity="0.1" mask="url(#path-12-outside-3_56_1377)"/>
<rect x="345.212" y="256.612" width="15.6796" height="10.8551" rx="1.20612" fill="#EE1A26"/>
<g filter="url(#filter0_d_56_1377)">
<path d="M347.625 259.024H348.831V261.437H351.243V259.024H352.449V265.055H351.243V262.643H348.831V265.055H347.625V259.024Z" fill="#F1F2F1"/>
<path d="M353.655 259.024H357.273V260.231H354.861V263.849H357.273V265.055H353.655V259.024Z" fill="#F1F2F1"/>
<path d="M357.273 263.849V260.231H358.48V263.849H357.273Z" fill="#F1F2F1"/>
</g>
<mask id="path-16-outside-4_56_1377" maskUnits="userSpaceOnUse" x="288.937" y="255.818" width="25" height="21" fill="black">
<rect fill="white" x="288.937" y="255.818" width="25" height="21"/>
<path fill-rule="evenodd" clip-rule="evenodd" d="M290.937 260.23C290.937 258.898 292.017 257.818 293.349 257.818H310.235C311.567 257.818 312.647 258.898 312.647 260.23V272.291C312.647 273.624 311.567 274.704 310.235 274.704H293.349C292.017 274.704 290.937 273.624 290.937 272.291V260.23ZM305.41 262.642H307.823C308.489 262.642 309.029 263.182 309.029 263.849C309.029 264.515 308.489 265.055 307.823 265.055H306.617C305.95 265.055 305.41 265.595 305.41 266.261C305.41 266.927 305.95 267.467 306.617 267.467H307.823C308.489 267.467 309.029 268.007 309.029 268.673C309.029 269.339 308.489 269.879 307.823 269.879H305.41C304.078 269.879 302.998 268.799 302.998 267.467V265.055C302.998 263.722 304.078 262.642 305.41 262.642ZM299.38 262.642H296.968C295.635 262.642 294.555 263.722 294.555 265.055V267.467C294.555 268.799 295.635 269.879 296.968 269.879H299.38C300.046 269.879 300.586 269.339 300.586 268.673C300.586 268.007 300.046 267.467 299.38 267.467H298.174C297.508 267.467 296.968 266.927 296.968 266.261C296.968 265.595 297.508 265.055 298.174 265.055H299.38C300.046 265.055 300.586 264.515 300.586 263.849C300.586 263.182 300.046 262.642 299.38 262.642Z"/>
</mask>
<path fill-rule="evenodd" clip-rule="evenodd" d="M290.937 260.23C290.937 258.898 292.017 257.818 293.349 257.818H310.235C311.567 257.818 312.647 258.898 312.647 260.23V272.291C312.647 273.624 311.567 274.704 310.235 274.704H293.349C292.017 274.704 290.937 273.624 290.937 272.291V260.23ZM305.41 262.642H307.823C308.489 262.642 309.029 263.182 309.029 263.849C309.029 264.515 308.489 265.055 307.823 265.055H306.617C305.95 265.055 305.41 265.595 305.41 266.261C305.41 266.927 305.95 267.467 306.617 267.467H307.823C308.489 267.467 309.029 268.007 309.029 268.673C309.029 269.339 308.489 269.879 307.823 269.879H305.41C304.078 269.879 302.998 268.799 302.998 267.467V265.055C302.998 263.722 304.078 262.642 305.41 262.642ZM299.38 262.642H296.968C295.635 262.642 294.555 263.722 294.555 265.055V267.467C294.555 268.799 295.635 269.879 296.968 269.879H299.38C300.046 269.879 300.586 269.339 300.586 268.673C300.586 268.007 300.046 267.467 299.38 267.467H298.174C297.508 267.467 296.968 266.927 296.968 266.261C296.968 265.595 297.508 265.055 298.174 265.055H299.38C300.046 265.055 300.586 264.515 300.586 263.849C300.586 263.182 300.046 262.642 299.38 262.642Z" fill="#EAEAEA"/>
<path d="M293.349 256.612C291.351 256.612 289.731 258.232 289.731 260.23H292.143C292.143 259.564 292.683 259.024 293.349 259.024V256.612ZM310.235 256.612H293.349V259.024H310.235V256.612ZM313.853 260.23C313.853 258.232 312.233 256.612 310.235 256.612V259.024C310.901 259.024 311.441 259.564 311.441 260.23H313.853ZM313.853 272.291V260.23H311.441V272.291H313.853ZM310.235 275.91C312.233 275.91 313.853 274.29 313.853 272.291H311.441C311.441 272.958 310.901 273.498 310.235 273.498V275.91ZM293.349 275.91H310.235V273.498H293.349V275.91ZM289.731 272.291C289.731 274.29 291.351 275.91 293.349 275.91V273.498C292.683 273.498 292.143 272.958 292.143 272.291H289.731ZM289.731 260.23V272.291H292.143V260.23H289.731ZM307.823 261.436H305.41V263.849H307.823V261.436ZM310.235 263.849C310.235 262.516 309.155 261.436 307.823 261.436V263.849H307.823H310.235ZM307.823 266.261C309.155 266.261 310.235 265.181 310.235 263.849H307.823H307.823V266.261ZM306.617 266.261H307.823V263.849H306.617V266.261ZM306.617 266.261V263.849C305.284 263.849 304.204 264.929 304.204 266.261H306.617ZM306.617 266.261H304.204C304.204 267.593 305.284 268.673 306.617 268.673V266.261ZM307.823 266.261H306.617V268.673H307.823V266.261ZM310.235 268.673C310.235 267.341 309.155 266.261 307.823 266.261V268.673H307.823H310.235ZM307.823 271.085C309.155 271.085 310.235 270.005 310.235 268.673H307.823H307.823V271.085ZM305.41 271.085H307.823V268.673H305.41V271.085ZM301.792 267.467C301.792 269.465 303.412 271.085 305.41 271.085V268.673C304.744 268.673 304.204 268.133 304.204 267.467H301.792ZM301.792 265.055V267.467H304.204V265.055H301.792ZM305.41 261.436C303.412 261.436 301.792 263.056 301.792 265.055H304.204C304.204 264.389 304.744 263.849 305.41 263.849V261.436ZM296.968 263.849H299.38V261.436H296.968V263.849ZM295.762 265.055C295.762 264.389 296.302 263.849 296.968 263.849V261.436C294.969 261.436 293.349 263.056 293.349 265.055H295.762ZM295.762 267.467V265.055H293.349V267.467H295.762ZM296.968 268.673C296.302 268.673 295.762 268.133 295.762 267.467H293.349C293.349 269.465 294.969 271.085 296.968 271.085V268.673ZM299.38 268.673H296.968V271.085H299.38V268.673ZM299.38 268.673V271.085C300.712 271.085 301.792 270.005 301.792 268.673H299.38ZM299.38 268.673H301.792C301.792 267.341 300.712 266.261 299.38 266.261V268.673ZM298.174 268.673H299.38V266.261H298.174V268.673ZM295.762 266.261C295.762 267.593 296.842 268.673 298.174 268.673V266.261H295.762ZM298.174 263.849C296.842 263.849 295.762 264.929 295.762 266.261H298.174V263.849ZM299.38 263.849H298.174V266.261H299.38V263.849ZM299.38 263.849V266.261C300.712 266.261 301.792 265.181 301.792 263.849H299.38ZM299.38 263.849H301.792C301.792 262.516 300.712 261.436 299.38 261.436V263.849Z" fill="black" fill-opacity="0.1" mask="url(#path-16-outside-4_56_1377)"/>
<mask id="path-18-outside-5_56_1377" maskUnits="userSpaceOnUse" x="162.484" y="259.2" width="67" height="15" fill="black">
<rect fill="white" x="162.484" y="259.2" width="67" height="15"/>
<path d="M165.306 264.391L164.349 264.146L164.724 261.076H168.391V262.079H165.719L165.543 263.388C165.64 263.347 165.783 263.298 165.972 263.242C166.166 263.186 166.38 263.158 166.615 263.158C167.049 263.158 167.419 263.237 167.725 263.395C168.037 263.554 168.274 263.781 168.437 264.077C168.606 264.373 168.69 264.728 168.69 265.141C168.69 265.503 168.608 265.843 168.445 266.159C168.282 266.471 168.034 266.723 167.702 266.917C167.371 267.106 166.95 267.2 166.439 267.2C166.061 267.2 165.704 267.134 165.367 267.001C165.03 266.864 164.755 266.664 164.54 266.404C164.326 266.144 164.209 265.83 164.188 265.462H165.375C165.4 265.723 165.51 265.914 165.704 266.037C165.898 266.159 166.143 266.22 166.439 266.22C166.812 266.22 167.077 266.116 167.235 265.907C167.399 265.697 167.48 265.437 167.48 265.126C167.48 264.809 167.381 264.551 167.182 264.352C166.983 264.153 166.697 264.054 166.324 264.054C166.044 264.054 165.832 264.09 165.689 264.161C165.546 264.232 165.418 264.309 165.306 264.391ZM170.416 271.45C170.416 271.21 170.49 271.008 170.638 270.845C170.791 270.676 171.011 270.592 171.297 270.592C171.583 270.592 171.799 270.676 171.947 270.845C172.101 271.008 172.177 271.21 172.177 271.45C172.177 271.684 172.101 271.883 171.947 272.047C171.799 272.21 171.583 272.292 171.297 272.292C171.011 272.292 170.791 272.21 170.638 272.047C170.49 271.883 170.416 271.684 170.416 271.45ZM170.424 264.689C170.424 264.449 170.498 264.248 170.646 264.084C170.799 263.916 171.019 263.832 171.304 263.832C171.59 263.832 171.807 263.916 171.955 264.084C172.108 264.248 172.185 264.449 172.185 264.689C172.185 264.924 172.108 265.123 171.955 265.286C171.807 265.45 171.59 265.531 171.304 265.531C171.019 265.531 170.799 265.45 170.646 265.286C170.498 265.123 170.424 264.924 170.424 264.689ZM178.482 263.564V264.628C178.482 265.21 178.387 265.692 178.199 266.075C178.015 266.453 177.754 266.736 177.418 266.925C177.081 267.109 176.688 267.2 176.239 267.2C175.784 267.2 175.386 267.109 175.044 266.925C174.707 266.736 174.444 266.453 174.256 266.075C174.067 265.692 173.972 265.21 173.972 264.628V263.564C173.972 262.982 174.064 262.502 174.248 262.124C174.437 261.742 174.7 261.458 175.037 261.275C175.379 261.086 175.774 260.991 176.223 260.991C176.678 260.991 177.073 261.086 177.41 261.275C177.747 261.458 178.01 261.742 178.199 262.124C178.387 262.502 178.482 262.982 178.482 263.564ZM177.272 264.728V263.457C177.272 263.115 177.231 262.836 177.15 262.622C177.068 262.403 176.948 262.242 176.79 262.14C176.637 262.033 176.448 261.979 176.223 261.979C175.999 261.979 175.807 262.033 175.649 262.14C175.496 262.242 175.379 262.403 175.297 262.622C175.215 262.836 175.174 263.115 175.174 263.457V264.728C175.174 265.069 175.215 265.35 175.297 265.57C175.379 265.789 175.498 265.952 175.657 266.06C175.82 266.167 176.014 266.22 176.239 266.22C176.463 266.22 176.652 266.167 176.805 266.06C176.958 265.952 177.073 265.789 177.15 265.57C177.231 265.35 177.272 265.069 177.272 264.728ZM184.457 261.076V261.765L181.778 267.116H180.507L183.186 262.063H179.718V261.076H184.457ZM195.926 262.637L190.482 271.35L189.686 270.845L195.129 262.132L195.926 262.637ZM204.355 261.053V267.093H203.16V262.492L201.507 262.928V261.941L204.217 261.053H204.355ZM208.301 264.391L207.344 264.146L207.719 261.076H211.387V262.079H208.715L208.539 263.388C208.635 263.347 208.778 263.298 208.967 263.242C209.161 263.186 209.376 263.158 209.61 263.158C210.044 263.158 210.414 263.237 210.72 263.395C211.032 263.554 211.269 263.781 211.433 264.077C211.601 264.373 211.685 264.728 211.685 265.141C211.685 265.503 211.603 265.843 211.44 266.159C211.277 266.471 211.029 266.723 210.698 266.917C210.366 267.106 209.945 267.2 209.434 267.2C209.057 267.2 208.699 267.134 208.362 267.001C208.026 266.864 207.75 266.664 207.536 266.404C207.321 266.144 207.204 265.83 207.183 265.462H208.37C208.396 265.723 208.505 265.914 208.699 266.037C208.893 266.159 209.138 266.22 209.434 266.22C209.807 266.22 210.072 266.116 210.231 265.907C210.394 265.697 210.476 265.437 210.476 265.126C210.476 264.809 210.376 264.551 210.177 264.352C209.978 264.153 209.692 264.054 209.319 264.054C209.039 264.054 208.827 264.09 208.684 264.161C208.541 264.232 208.413 264.309 208.301 264.391ZM213.411 271.45C213.411 271.21 213.485 271.008 213.633 270.845C213.787 270.676 214.006 270.592 214.292 270.592C214.578 270.592 214.795 270.676 214.943 270.845C215.096 271.008 215.172 271.21 215.172 271.45C215.172 271.684 215.096 271.883 214.943 272.047C214.795 272.21 214.578 272.292 214.292 272.292C214.006 272.292 213.787 272.21 213.633 272.047C213.485 271.883 213.411 271.684 213.411 271.45ZM213.419 264.689C213.419 264.449 213.493 264.248 213.641 264.084C213.794 263.916 214.014 263.832 214.3 263.832C214.585 263.832 214.802 263.916 214.95 264.084C215.103 264.248 215.18 264.449 215.18 264.689C215.18 264.924 215.103 265.123 214.95 265.286C214.802 265.45 214.585 265.531 214.3 265.531C214.014 265.531 213.794 265.45 213.641 265.286C213.493 265.123 213.419 264.924 213.419 264.689ZM221.576 266.113V267.093H216.998V266.266L219.203 264.192C219.433 263.977 219.614 263.786 219.747 263.617C219.879 263.449 219.974 263.298 220.03 263.166C220.091 263.028 220.122 262.903 220.122 262.791C220.122 262.546 220.04 262.344 219.877 262.186C219.713 262.027 219.481 261.948 219.18 261.948C218.797 261.948 218.514 262.045 218.33 262.239C218.152 262.433 218.062 262.676 218.062 262.967H216.853C216.853 262.599 216.945 262.265 217.128 261.964C217.312 261.663 217.575 261.423 217.917 261.244C218.259 261.06 218.67 260.968 219.149 260.968C219.609 260.968 220.002 261.042 220.329 261.19C220.655 261.338 220.905 261.548 221.079 261.818C221.252 262.084 221.339 262.403 221.339 262.775C221.339 263.046 221.278 263.298 221.155 263.533C221.038 263.768 220.87 264.003 220.65 264.238C220.431 264.472 220.17 264.725 219.869 264.995L218.529 266.113H221.576ZM227.399 265.462C227.399 265.845 227.299 266.167 227.1 266.427C226.906 266.682 226.638 266.876 226.296 267.009C225.954 267.137 225.569 267.2 225.14 267.2C224.711 267.2 224.326 267.137 223.984 267.009C223.642 266.876 223.369 266.682 223.165 266.427C222.966 266.167 222.866 265.845 222.866 265.462C222.866 265.115 222.963 264.817 223.157 264.567C223.356 264.317 223.627 264.123 223.969 263.985C224.311 263.847 224.699 263.778 225.133 263.778C225.566 263.778 225.954 263.847 226.296 263.985C226.638 264.123 226.906 264.317 227.1 264.567C227.299 264.817 227.399 265.115 227.399 265.462ZM226.204 265.371C226.204 265.192 226.158 265.041 226.067 264.919C225.975 264.791 225.847 264.694 225.684 264.628C225.526 264.557 225.342 264.521 225.133 264.521C224.918 264.521 224.732 264.557 224.574 264.628C224.415 264.694 224.293 264.791 224.206 264.919C224.119 265.041 224.076 265.192 224.076 265.371C224.076 265.544 224.119 265.695 224.206 265.822C224.293 265.95 224.415 266.049 224.574 266.121C224.737 266.187 224.926 266.22 225.14 266.22C225.349 266.22 225.533 266.187 225.691 266.121C225.855 266.049 225.98 265.95 226.067 265.822C226.158 265.695 226.204 265.544 226.204 265.371ZM227.253 262.676C227.253 262.992 227.161 263.27 226.978 263.51C226.799 263.745 226.551 263.929 226.235 264.061C225.919 264.189 225.554 264.253 225.14 264.253C224.727 264.253 224.359 264.189 224.038 264.061C223.721 263.929 223.471 263.745 223.287 263.51C223.109 263.27 223.019 262.992 223.019 262.676C223.019 262.313 223.109 262.007 223.287 261.757C223.471 261.507 223.721 261.318 224.038 261.19C224.359 261.058 224.724 260.991 225.133 260.991C225.541 260.991 225.903 261.058 226.22 261.19C226.541 261.318 226.794 261.507 226.978 261.757C227.161 262.007 227.253 262.313 227.253 262.676ZM226.044 262.752C226.044 262.594 226.005 262.459 225.929 262.346C225.857 262.229 225.753 262.137 225.615 262.071C225.482 262.005 225.321 261.971 225.133 261.971C224.852 261.971 224.63 262.04 224.466 262.178C224.303 262.316 224.221 262.507 224.221 262.752C224.221 262.905 224.257 263.041 224.329 263.158C224.405 263.275 224.512 263.367 224.65 263.434C224.788 263.5 224.951 263.533 225.14 263.533C225.421 263.533 225.64 263.462 225.799 263.319C225.962 263.176 226.044 262.987 226.044 262.752Z"/>
</mask>
<path d="M165.306 264.391L164.349 264.146L164.724 261.076H168.391V262.079H165.719L165.543 263.388C165.64 263.347 165.783 263.298 165.972 263.242C166.166 263.186 166.38 263.158 166.615 263.158C167.049 263.158 167.419 263.237 167.725 263.395C168.037 263.554 168.274 263.781 168.437 264.077C168.606 264.373 168.69 264.728 168.69 265.141C168.69 265.503 168.608 265.843 168.445 266.159C168.282 266.471 168.034 266.723 167.702 266.917C167.371 267.106 166.95 267.2 166.439 267.2C166.061 267.2 165.704 267.134 165.367 267.001C165.03 266.864 164.755 266.664 164.54 266.404C164.326 266.144 164.209 265.83 164.188 265.462H165.375C165.4 265.723 165.51 265.914 165.704 266.037C165.898 266.159 166.143 266.22 166.439 266.22C166.812 266.22 167.077 266.116 167.235 265.907C167.399 265.697 167.48 265.437 167.48 265.126C167.48 264.809 167.381 264.551 167.182 264.352C166.983 264.153 166.697 264.054 166.324 264.054C166.044 264.054 165.832 264.09 165.689 264.161C165.546 264.232 165.418 264.309 165.306 264.391ZM170.416 271.45C170.416 271.21 170.49 271.008 170.638 270.845C170.791 270.676 171.011 270.592 171.297 270.592C171.583 270.592 171.799 270.676 171.947 270.845C172.101 271.008 172.177 271.21 172.177 271.45C172.177 271.684 172.101 271.883 171.947 272.047C171.799 272.21 171.583 272.292 171.297 272.292C171.011 272.292 170.791 272.21 170.638 272.047C170.49 271.883 170.416 271.684 170.416 271.45ZM170.424 264.689C170.424 264.449 170.498 264.248 170.646 264.084C170.799 263.916 171.019 263.832 171.304 263.832C171.59 263.832 171.807 263.916 171.955 264.084C172.108 264.248 172.185 264.449 172.185 264.689C172.185 264.924 172.108 265.123 171.955 265.286C171.807 265.45 171.59 265.531 171.304 265.531C171.019 265.531 170.799 265.45 170.646 265.286C170.498 265.123 170.424 264.924 170.424 264.689ZM178.482 263.564V264.628C178.482 265.21 178.387 265.692 178.199 266.075C178.015 266.453 177.754 266.736 177.418 266.925C177.081 267.109 176.688 267.2 176.239 267.2C175.784 267.2 175.386 267.109 175.044 266.925C174.707 266.736 174.444 266.453 174.256 266.075C174.067 265.692 173.972 265.21 173.972 264.628V263.564C173.972 262.982 174.064 262.502 174.248 262.124C174.437 261.742 174.7 261.458 175.037 261.275C175.379 261.086 175.774 260.991 176.223 260.991C176.678 260.991 177.073 261.086 177.41 261.275C177.747 261.458 178.01 261.742 178.199 262.124C178.387 262.502 178.482 262.982 178.482 263.564ZM177.272 264.728V263.457C177.272 263.115 177.231 262.836 177.15 262.622C177.068 262.403 176.948 262.242 176.79 262.14C176.637 262.033 176.448 261.979 176.223 261.979C175.999 261.979 175.807 262.033 175.649 262.14C175.496 262.242 175.379 262.403 175.297 262.622C175.215 262.836 175.174 263.115 175.174 263.457V264.728C175.174 265.069 175.215 265.35 175.297 265.57C175.379 265.789 175.498 265.952 175.657 266.06C175.82 266.167 176.014 266.22 176.239 266.22C176.463 266.22 176.652 266.167 176.805 266.06C176.958 265.952 177.073 265.789 177.15 265.57C177.231 265.35 177.272 265.069 177.272 264.728ZM184.457 261.076V261.765L181.778 267.116H180.507L183.186 262.063H179.718V261.076H184.457ZM195.926 262.637L190.482 271.35L189.686 270.845L195.129 262.132L195.926 262.637ZM204.355 261.053V267.093H203.16V262.492L201.507 262.928V261.941L204.217 261.053H204.355ZM208.301 264.391L207.344 264.146L207.719 261.076H211.387V262.079H208.715L208.539 263.388C208.635 263.347 208.778 263.298 208.967 263.242C209.161 263.186 209.376 263.158 209.61 263.158C210.044 263.158 210.414 263.237 210.72 263.395C211.032 263.554 211.269 263.781 211.433 264.077C211.601 264.373 211.685 264.728 211.685 265.141C211.685 265.503 211.603 265.843 211.44 266.159C211.277 266.471 211.029 266.723 210.698 266.917C210.366 267.106 209.945 267.2 209.434 267.2C209.057 267.2 208.699 267.134 208.362 267.001C208.026 266.864 207.75 266.664 207.536 266.404C207.321 266.144 207.204 265.83 207.183 265.462H208.37C208.396 265.723 208.505 265.914 208.699 266.037C208.893 266.159 209.138 266.22 209.434 266.22C209.807 266.22 210.072 266.116 210.231 265.907C210.394 265.697 210.476 265.437 210.476 265.126C210.476 264.809 210.376 264.551 210.177 264.352C209.978 264.153 209.692 264.054 209.319 264.054C209.039 264.054 208.827 264.09 208.684 264.161C208.541 264.232 208.413 264.309 208.301 264.391ZM213.411 271.45C213.411 271.21 213.485 271.008 213.633 270.845C213.787 270.676 214.006 270.592 214.292 270.592C214.578 270.592 214.795 270.676 214.943 270.845C215.096 271.008 215.172 271.21 215.172 271.45C215.172 271.684 215.096 271.883 214.943 272.047C214.795 272.21 214.578 272.292 214.292 272.292C214.006 272.292 213.787 272.21 213.633 272.047C213.485 271.883 213.411 271.684 213.411 271.45ZM213.419 264.689C213.419 264.449 213.493 264.248 213.641 264.084C213.794 263.916 214.014 263.832 214.3 263.832C214.585 263.832 214.802 263.916 214.95 264.084C215.103 264.248 215.18 264.449 215.18 264.689C215.18 264.924 215.103 265.123 214.95 265.286C214.802 265.45 214.585 265.531 214.3 265.531C214.014 265.531 213.794 265.45 213.641 265.286C213.493 265.123 213.419 264.924 213.419 264.689ZM221.576 266.113V267.093H216.998V266.266L219.203 264.192C219.433 263.977 219.614 263.786 219.747 263.617C219.879 263.449 219.974 263.298 220.03 263.166C220.091 263.028 220.122 262.903 220.122 262.791C220.122 262.546 220.04 262.344 219.877 262.186C219.713 262.027 219.481 261.948 219.18 261.948C218.797 261.948 218.514 262.045 218.33 262.239C218.152 262.433 218.062 262.676 218.062 262.967H216.853C216.853 262.599 216.945 262.265 217.128 261.964C217.312 261.663 217.575 261.423 217.917 261.244C218.259 261.06 218.67 260.968 219.149 260.968C219.609 260.968 220.002 261.042 220.329 261.19C220.655 261.338 220.905 261.548 221.079 261.818C221.252 262.084 221.339 262.403 221.339 262.775C221.339 263.046 221.278 263.298 221.155 263.533C221.038 263.768 220.87 264.003 220.65 264.238C220.431 264.472 220.17 264.725 219.869 264.995L218.529 266.113H221.576ZM227.399 265.462C227.399 265.845 227.299 266.167 227.1 266.427C226.906 266.682 226.638 266.876 226.296 267.009C225.954 267.137 225.569 267.2 225.14 267.2C224.711 267.2 224.326 267.137 223.984 267.009C223.642 266.876 223.369 266.682 223.165 266.427C222.966 266.167 222.866 265.845 222.866 265.462C222.866 265.115 222.963 264.817 223.157 264.567C223.356 264.317 223.627 264.123 223.969 263.985C224.311 263.847 224.699 263.778 225.133 263.778C225.566 263.778 225.954 263.847 226.296 263.985C226.638 264.123 226.906 264.317 227.1 264.567C227.299 264.817 227.399 265.115 227.399 265.462ZM226.204 265.371C226.204 265.192 226.158 265.041 226.067 264.919C225.975 264.791 225.847 264.694 225.684 264.628C225.526 264.557 225.342 264.521 225.133 264.521C224.918 264.521 224.732 264.557 224.574 264.628C224.415 264.694 224.293 264.791 224.206 264.919C224.119 265.041 224.076 265.192 224.076 265.371C224.076 265.544 224.119 265.695 224.206 265.822C224.293 265.95 224.415 266.049 224.574 266.121C224.737 266.187 224.926 266.22 225.14 266.22C225.349 266.22 225.533 266.187 225.691 266.121C225.855 266.049 225.98 265.95 226.067 265.822C226.158 265.695 226.204 265.544 226.204 265.371ZM227.253 262.676C227.253 262.992 227.161 263.27 226.978 263.51C226.799 263.745 226.551 263.929 226.235 264.061C225.919 264.189 225.554 264.253 225.14 264.253C224.727 264.253 224.359 264.189 224.038 264.061C223.721 263.929 223.471 263.745 223.287 263.51C223.109 263.27 223.019 262.992 223.019 262.676C223.019 262.313 223.109 262.007 223.287 261.757C223.471 261.507 223.721 261.318 224.038 261.19C224.359 261.058 224.724 260.991 225.133 260.991C225.541 260.991 225.903 261.058 226.22 261.19C226.541 261.318 226.794 261.507 226.978 261.757C227.161 262.007 227.253 262.313 227.253 262.676ZM226.044 262.752C226.044 262.594 226.005 262.459 225.929 262.346C225.857 262.229 225.753 262.137 225.615 262.071C225.482 262.005 225.321 261.971 225.133 261.971C224.852 261.971 224.63 262.04 224.466 262.178C224.303 262.316 224.221 262.507 224.221 262.752C224.221 262.905 224.257 263.041 224.329 263.158C224.405 263.275 224.512 263.367 224.65 263.434C224.788 263.5 224.951 263.533 225.14 263.533C225.421 263.533 225.64 263.462 225.799 263.319C225.962 263.176 226.044 262.987 226.044 262.752Z" fill="#EAEAEA"/>
<path d="M165.306 264.391L165.007 265.559L165.557 265.7L166.015 265.366L165.306 264.391ZM164.349 264.146L163.152 263.999L163.023 265.051L164.05 265.314L164.349 264.146ZM164.724 261.076V259.869H163.656L163.527 260.929L164.724 261.076ZM168.391 261.076H169.598V259.869H168.391V261.076ZM168.391 262.079V263.285H169.598V262.079H168.391ZM165.719 262.079V260.872H164.665L164.524 261.918L165.719 262.079ZM165.543 263.388L164.348 263.227L164.067 265.318L166.011 264.499L165.543 263.388ZM165.972 263.242L165.637 262.084L165.628 262.086L165.972 263.242ZM167.725 263.395L167.172 264.467L167.179 264.471L167.725 263.395ZM168.437 264.077L167.381 264.659L167.385 264.666L167.389 264.673L168.437 264.077ZM168.445 266.159L169.513 266.72L169.517 266.712L168.445 266.159ZM167.702 266.917L168.299 267.965L168.311 267.958L167.702 266.917ZM165.367 267.001L164.911 268.118L164.918 268.121L164.925 268.124L165.367 267.001ZM164.188 265.462V264.256H162.913L162.984 265.529L164.188 265.462ZM165.375 265.462L166.575 265.345L166.469 264.256H165.375V265.462ZM167.235 265.907L166.285 265.164L166.279 265.172L166.273 265.179L167.235 265.907ZM165.605 263.222L164.648 262.977L164.05 265.314L165.007 265.559L165.605 263.222ZM165.546 264.292L165.921 261.222L163.527 260.929L163.152 263.999L165.546 264.292ZM164.724 262.282H168.391V259.869H164.724V262.282ZM167.185 261.076V262.079H169.598V261.076H167.185ZM168.391 260.872H165.719V263.285H168.391V260.872ZM164.524 261.918L164.348 263.227L166.739 263.548L166.915 262.239L164.524 261.918ZM166.011 264.499C166.047 264.484 166.14 264.451 166.316 264.398L165.628 262.086C165.427 262.146 165.234 262.209 165.075 262.276L166.011 264.499ZM166.307 264.401C166.376 264.381 166.476 264.364 166.615 264.364V261.952C166.285 261.952 165.956 261.991 165.637 262.084L166.307 264.401ZM166.615 264.364C166.905 264.364 167.075 264.417 167.172 264.467L168.279 262.324C167.763 262.057 167.193 261.952 166.615 261.952V264.364ZM167.179 264.471C167.282 264.523 167.339 264.582 167.381 264.659L169.493 263.494C169.209 262.979 168.791 262.584 168.272 262.32L167.179 264.471ZM167.389 264.673C167.434 264.752 167.484 264.892 167.484 265.141H169.896C169.896 264.563 169.778 263.993 169.486 263.48L167.389 264.673ZM167.484 265.141C167.484 265.314 167.447 265.464 167.373 265.606L169.517 266.712C169.77 266.222 169.896 265.692 169.896 265.141H167.484ZM167.377 265.599C167.328 265.692 167.249 265.785 167.094 265.876L168.311 267.958C168.819 267.661 169.235 267.25 169.513 266.719L167.377 265.599ZM167.106 265.869C167.007 265.925 166.808 265.994 166.439 265.994V268.407C167.091 268.407 167.734 268.287 168.299 267.965L167.106 265.869ZM166.439 265.994C166.206 265.994 165.999 265.954 165.809 265.879L164.925 268.124C165.409 268.314 165.917 268.407 166.439 268.407V265.994ZM165.824 265.885C165.657 265.817 165.549 265.732 165.471 265.637L163.609 267.171C163.96 267.597 164.404 267.911 164.911 268.118L165.824 265.885ZM165.471 265.637C165.435 265.594 165.4 265.531 165.393 265.396L162.984 265.529C163.017 266.129 163.217 266.694 163.609 267.171L165.471 265.637ZM164.188 266.669H165.375V264.256H164.188V266.669ZM164.175 265.58C164.231 266.152 164.505 266.706 165.06 267.056L166.348 265.017C166.411 265.056 166.476 265.12 166.523 265.201C166.567 265.279 166.574 265.336 166.575 265.345L164.175 265.58ZM165.06 267.056C165.495 267.331 165.98 267.427 166.439 267.427V265.014C166.373 265.014 166.338 265.007 166.326 265.004C166.315 265.002 166.326 265.003 166.348 265.017L165.06 267.056ZM166.439 267.427C167.022 267.427 167.726 267.257 168.197 266.634L166.273 265.179C166.303 265.139 166.339 265.104 166.379 265.075C166.417 265.046 166.451 265.029 166.475 265.02C166.519 265.003 166.518 265.014 166.439 265.014V267.427ZM168.186 266.649C168.542 266.192 168.686 265.657 168.686 265.126H166.274C166.274 265.176 166.268 265.195 166.268 265.193C166.269 265.193 166.27 265.188 166.273 265.182C166.277 265.176 166.28 265.17 166.285 265.164L168.186 266.649ZM168.686 265.126C168.686 264.533 168.489 263.954 168.035 263.5L166.329 265.205C166.322 265.198 166.312 265.187 166.303 265.173C166.293 265.158 166.286 265.143 166.281 265.129C166.27 265.101 166.274 265.095 166.274 265.126H168.686ZM168.035 263.5C167.543 263.008 166.91 262.848 166.324 262.848V265.26C166.406 265.26 166.432 265.271 166.421 265.267C166.416 265.265 166.402 265.26 166.384 265.249C166.365 265.237 166.346 265.223 166.329 265.205L168.035 263.5ZM166.324 262.848C165.978 262.848 165.542 262.886 165.149 263.082L166.228 265.24C166.194 265.257 166.169 265.265 166.158 265.269C166.147 265.272 166.145 265.272 166.155 265.27C166.179 265.266 166.232 265.26 166.324 265.26V262.848ZM165.149 263.082C164.956 263.179 164.77 263.289 164.597 263.415L166.015 265.366C166.067 265.329 166.136 265.286 166.228 265.24L165.149 263.082ZM170.638 270.845L169.746 270.033L169.745 270.035L170.638 270.845ZM171.947 270.845L171.042 271.641L171.054 271.655L171.068 271.67L171.947 270.845ZM171.947 272.047L171.068 271.222L171.061 271.229L171.054 271.237L171.947 272.047ZM170.638 272.047L169.745 272.857L169.751 272.864L169.758 272.872L170.638 272.047ZM170.646 264.084L169.754 263.273L169.752 263.274L170.646 264.084ZM171.955 264.084L171.049 264.881L171.062 264.895L171.075 264.909L171.955 264.084ZM171.955 265.286L171.075 264.461L171.068 264.469L171.061 264.476L171.955 265.286ZM170.646 265.286L169.752 266.096L169.759 266.104L169.766 266.111L170.646 265.286ZM171.622 271.45C171.622 271.455 171.621 271.487 171.604 271.534C171.586 271.583 171.559 271.625 171.532 271.655L169.745 270.035C169.377 270.44 169.21 270.939 169.21 271.45H171.622ZM171.531 271.656C171.476 271.716 171.41 271.758 171.35 271.781C171.295 271.802 171.271 271.798 171.297 271.798V269.386C170.764 269.386 170.183 269.552 169.746 270.033L171.531 271.656ZM171.297 271.798C171.323 271.798 171.296 271.802 171.237 271.78C171.172 271.754 171.1 271.708 171.042 271.641L172.853 270.049C172.417 269.552 171.827 269.386 171.297 269.386V271.798ZM171.068 271.67C171.041 271.641 171.012 271.599 170.992 271.547C170.973 271.496 170.971 271.46 170.971 271.45H173.383C173.383 270.927 173.206 270.424 172.827 270.02L171.068 271.67ZM170.971 271.45C170.971 271.434 170.974 271.394 170.994 271.342C171.014 271.289 171.043 271.248 171.068 271.222L172.827 272.872C173.201 272.473 173.383 271.974 173.383 271.45H170.971ZM171.054 271.237C171.115 271.169 171.187 271.125 171.249 271.102C171.304 271.081 171.327 271.086 171.297 271.086V273.498C171.816 273.498 172.401 273.342 172.841 272.857L171.054 271.237ZM171.297 271.086C171.267 271.086 171.288 271.081 171.338 271.1C171.395 271.121 171.461 271.161 171.518 271.222L169.758 272.872C170.199 273.341 170.775 273.498 171.297 273.498V271.086ZM171.532 271.237C171.557 271.264 171.584 271.305 171.602 271.355C171.62 271.403 171.622 271.439 171.622 271.45H169.21C169.21 271.962 169.382 272.456 169.745 272.857L171.532 271.237ZM171.63 264.689C171.63 264.695 171.629 264.727 171.612 264.774C171.594 264.822 171.567 264.864 171.54 264.894L169.752 263.274C169.385 263.68 169.218 264.179 169.218 264.689H171.63ZM171.538 264.896C171.484 264.956 171.418 264.998 171.358 265.021C171.303 265.042 171.278 265.038 171.304 265.038V262.626C170.772 262.626 170.191 262.792 169.754 263.273L171.538 264.896ZM171.304 265.038C171.331 265.038 171.303 265.042 171.245 265.019C171.18 264.994 171.108 264.947 171.049 264.881L172.861 263.288C172.424 262.791 171.835 262.626 171.304 262.626V265.038ZM171.075 264.909C171.048 264.881 171.02 264.838 171 264.786C170.981 264.736 170.979 264.699 170.979 264.689H173.391C173.391 264.167 173.214 263.663 172.835 263.259L171.075 264.909ZM170.979 264.689C170.979 264.674 170.982 264.634 171.002 264.582C171.022 264.529 171.051 264.488 171.075 264.461L172.835 266.111C173.209 265.713 173.391 265.214 173.391 264.689H170.979ZM171.061 264.476C171.123 264.409 171.195 264.364 171.256 264.341C171.311 264.321 171.335 264.325 171.304 264.325V266.738C171.824 266.738 172.409 266.582 172.849 266.096L171.061 264.476ZM171.304 264.325C171.274 264.325 171.295 264.321 171.346 264.34C171.403 264.361 171.469 264.401 171.526 264.461L169.766 266.111C170.206 266.581 170.783 266.738 171.304 266.738V264.325ZM171.54 264.476C171.565 264.504 171.592 264.545 171.61 264.594C171.628 264.643 171.63 264.678 171.63 264.689H169.218C169.218 265.202 169.389 265.696 169.752 266.096L171.54 264.476ZM178.199 266.075L177.117 265.541L177.114 265.547L178.199 266.075ZM177.418 266.925L177.995 267.984L178.007 267.977L177.418 266.925ZM175.044 266.925L174.454 267.977L174.464 267.982L174.473 267.987L175.044 266.925ZM174.256 266.075L173.174 266.609L173.177 266.614L174.256 266.075ZM174.248 262.124L173.166 261.591L173.163 261.597L174.248 262.124ZM175.037 261.275L175.614 262.333L175.62 262.33L175.037 261.275ZM177.41 261.275L176.82 262.327L176.832 262.333L177.41 261.275ZM178.199 262.124L177.117 262.658L177.12 262.664L178.199 262.124ZM177.15 262.622L176.019 263.043L176.023 263.051L177.15 262.622ZM176.79 262.14L176.098 263.128L176.117 263.141L176.136 263.153L176.79 262.14ZM175.649 262.14L176.318 263.143L176.325 263.138L175.649 262.14ZM175.297 262.622L176.424 263.051L176.427 263.043L175.297 262.622ZM175.297 265.57L174.166 265.99L175.297 265.57ZM175.657 266.06L174.98 267.058L174.988 267.063L174.995 267.068L175.657 266.06ZM177.15 265.57L176.019 265.149L176.015 265.161L176.011 265.172L177.15 265.57ZM177.276 263.564V264.628H179.688V263.564H177.276ZM177.276 264.628C177.276 265.088 177.2 265.373 177.117 265.541L179.28 266.609C179.575 266.011 179.688 265.331 179.688 264.628H177.276ZM177.114 265.547C177.028 265.724 176.931 265.815 176.828 265.873L178.007 267.977C178.578 267.657 179.002 267.181 179.283 266.603L177.114 265.547ZM176.84 265.866C176.708 265.938 176.52 265.994 176.239 265.994V268.407C176.855 268.407 177.453 268.279 177.995 267.984L176.84 265.866ZM176.239 265.994C175.95 265.994 175.754 265.937 175.615 265.862L174.473 267.987C175.019 268.28 175.619 268.407 176.239 268.407V265.994ZM175.634 265.873C175.527 265.813 175.426 265.718 175.334 265.536L173.177 266.614C173.463 267.187 173.887 267.659 174.454 267.977L175.634 265.873ZM175.337 265.541C175.254 265.373 175.178 265.088 175.178 264.628H172.766C172.766 265.331 172.879 266.011 173.174 266.609L175.337 265.541ZM175.178 264.628V263.564H172.766V264.628H175.178ZM175.178 263.564C175.178 263.098 175.253 262.815 175.333 262.652L173.163 261.597C172.875 262.19 172.766 262.865 172.766 263.564H175.178ZM175.33 262.658C175.421 262.472 175.52 262.385 175.614 262.333L174.459 260.216C173.88 260.532 173.452 261.011 173.166 261.591L175.33 262.658ZM175.62 262.33C175.758 262.254 175.947 262.197 176.223 262.197V259.785C175.601 259.785 174.999 259.917 174.453 260.219L175.62 262.33ZM176.223 262.197C176.508 262.197 176.693 262.255 176.82 262.327L178 260.223C177.453 259.916 176.847 259.785 176.223 259.785V262.197ZM176.832 262.333C176.927 262.385 177.025 262.472 177.117 262.658L179.28 261.591C178.994 261.011 178.567 260.532 177.987 260.216L176.832 262.333ZM177.12 262.664C177.199 262.823 177.276 263.102 177.276 263.564H179.688C179.688 262.862 179.575 262.181 179.277 261.585L177.12 262.664ZM178.478 264.728V263.457H176.066V264.728H178.478ZM178.478 263.457C178.478 263.033 178.43 262.594 178.277 262.193L176.023 263.051C176.033 263.079 176.066 263.196 176.066 263.457H178.478ZM178.28 262.201C178.13 261.799 177.869 261.401 177.444 261.126L176.136 263.153C176.086 263.121 176.052 263.085 176.032 263.058C176.013 263.033 176.012 263.023 176.019 263.043L178.28 262.201ZM177.481 261.152C177.088 260.876 176.644 260.773 176.223 260.773V263.185C176.24 263.185 176.231 263.187 176.204 263.179C176.175 263.171 176.137 263.155 176.098 263.128L177.481 261.152ZM176.223 260.773C175.801 260.773 175.363 260.876 174.973 261.141L176.325 263.138C176.293 263.16 176.261 263.174 176.236 263.181C176.214 263.187 176.207 263.185 176.223 263.185V260.773ZM174.98 261.136C174.564 261.413 174.312 261.809 174.166 262.201L176.427 263.043C176.436 263.019 176.437 263.025 176.42 263.048C176.402 263.073 176.369 263.109 176.318 263.143L174.98 261.136ZM174.17 262.193C174.017 262.594 173.968 263.033 173.968 263.457H176.38C176.38 263.196 176.414 263.079 176.424 263.051L174.17 262.193ZM173.968 263.457V264.728H176.38V263.457H173.968ZM173.968 264.728C173.968 265.153 174.017 265.59 174.166 265.99L176.427 265.149C176.413 265.111 176.38 264.986 176.38 264.728H173.968ZM174.166 265.99C174.316 266.391 174.571 266.781 174.98 267.058L176.333 265.061C176.375 265.089 176.404 265.12 176.42 265.143C176.436 265.164 176.435 265.17 176.427 265.149L174.166 265.99ZM174.995 267.068C175.383 267.323 175.815 267.427 176.239 267.427V265.014C176.222 265.014 176.227 265.012 176.246 265.018C176.266 265.023 176.292 265.034 176.318 265.051L174.995 267.068ZM176.239 267.427C176.66 267.427 177.103 267.323 177.497 267.048L176.113 265.072C176.153 265.044 176.191 265.028 176.219 265.02C176.246 265.012 176.255 265.014 176.239 265.014V267.427ZM177.497 267.048C177.903 266.763 178.149 266.366 178.288 265.967L176.011 265.172C176.003 265.194 176.003 265.186 176.019 265.163C176.037 265.138 176.068 265.104 176.113 265.072L177.497 267.048ZM178.28 265.99C178.429 265.59 178.478 265.153 178.478 264.728H176.066C176.066 264.986 176.033 265.111 176.019 265.149L178.28 265.99ZM184.457 261.076H185.663V259.869H184.457V261.076ZM184.457 261.765L185.536 262.305L185.663 262.05V261.765H184.457ZM181.778 267.116V268.322H182.523L182.856 267.656L181.778 267.116ZM180.507 267.116L179.441 266.551L178.502 268.322H180.507V267.116ZM183.186 262.063L184.252 262.628L185.191 260.857H183.186V262.063ZM179.718 262.063H178.512V263.269H179.718V262.063ZM179.718 261.076V259.869H178.512V261.076H179.718ZM183.251 261.076V261.765H185.663V261.076H183.251ZM183.379 261.225L180.699 266.576L182.856 267.656L185.536 262.305L183.379 261.225ZM181.778 265.91H180.507V268.322H181.778V265.91ZM181.572 267.681L184.252 262.628L182.121 261.498L179.441 266.551L181.572 267.681ZM183.186 260.857H179.718V263.269H183.186V260.857ZM180.924 262.063V261.076H178.512V262.063H180.924ZM179.718 262.282H184.457V259.869H179.718V262.282ZM195.926 262.637L196.949 263.276L197.583 262.261L196.572 261.619L195.926 262.637ZM190.482 271.35L189.836 272.368L190.861 273.019L191.505 271.989L190.482 271.35ZM189.686 270.845L188.663 270.206L188.028 271.221L189.04 271.863L189.686 270.845ZM195.129 262.132L195.776 261.114L194.75 260.463L194.107 261.493L195.129 262.132ZM194.903 261.998L189.459 270.711L191.505 271.989L196.949 263.276L194.903 261.998ZM191.128 270.332L190.332 269.826L189.04 271.863L189.836 272.368L191.128 270.332ZM190.709 271.484L196.152 262.771L194.107 261.493L188.663 270.206L190.709 271.484ZM194.483 263.15L195.279 263.656L196.572 261.619L195.776 261.114L194.483 263.15ZM204.355 261.053H205.561V259.846H204.355V261.053ZM204.355 267.093V268.299H205.561V267.093H204.355ZM203.16 267.093H201.954V268.299H203.16V267.093ZM203.16 262.492H204.366V260.926L202.853 261.326L203.16 262.492ZM201.507 262.928H200.3V264.494L201.814 264.095L201.507 262.928ZM201.507 261.941L201.131 260.795L200.3 261.067V261.941H201.507ZM204.217 261.053V259.846H204.024L203.841 259.906L204.217 261.053ZM203.149 261.053V267.093H205.561V261.053H203.149ZM204.355 265.887H203.16V268.299H204.355V265.887ZM204.366 267.093V262.492H201.954V267.093H204.366ZM202.853 261.326L201.199 261.762L201.814 264.095L203.468 263.658L202.853 261.326ZM202.713 262.928V261.941H200.3V262.928H202.713ZM201.882 263.087L204.592 262.199L203.841 259.906L201.131 260.795L201.882 263.087ZM204.217 262.259H204.355V259.846H204.217V262.259ZM208.301 264.391L208.002 265.559L208.552 265.7L209.011 265.366L208.301 264.391ZM207.344 264.146L206.147 263.999L206.018 265.051L207.045 265.314L207.344 264.146ZM207.719 261.076V259.869H206.652L206.522 260.929L207.719 261.076ZM211.387 261.076H212.593V259.869H211.387V261.076ZM211.387 262.079V263.285H212.593V262.079H211.387ZM208.715 262.079V260.872H207.66L207.519 261.918L208.715 262.079ZM208.539 263.388L207.343 263.227L207.062 265.318L209.007 264.499L208.539 263.388ZM208.967 263.242L208.632 262.084L208.624 262.086L208.967 263.242ZM210.72 263.395L210.167 264.467L210.174 264.471L210.72 263.395ZM211.433 264.077L210.376 264.659L210.38 264.666L210.384 264.673L211.433 264.077ZM211.44 266.159L212.508 266.72L212.512 266.712L211.44 266.159ZM210.698 266.917L211.294 267.965L211.306 267.958L210.698 266.917ZM208.362 267.001L207.906 268.118L207.913 268.121L207.92 268.124L208.362 267.001ZM207.183 265.462V264.256H205.908L205.979 265.529L207.183 265.462ZM208.37 265.462L209.57 265.345L209.464 264.256H208.37V265.462ZM210.231 265.907L209.28 265.164L209.274 265.172L209.268 265.179L210.231 265.907ZM208.6 263.222L207.643 262.977L207.045 265.314L208.002 265.559L208.6 263.222ZM208.541 264.292L208.917 261.222L206.522 260.929L206.147 263.999L208.541 264.292ZM207.719 262.282H211.387V259.869H207.719V262.282ZM210.18 261.076V262.079H212.593V261.076H210.18ZM211.387 260.872H208.715V263.285H211.387V260.872ZM207.519 261.918L207.343 263.227L209.734 263.548L209.91 262.239L207.519 261.918ZM209.007 264.499C209.042 264.484 209.135 264.451 209.311 264.398L208.624 262.086C208.422 262.146 208.229 262.209 208.07 262.276L209.007 264.499ZM209.303 264.401C209.372 264.381 209.471 264.364 209.61 264.364V261.952C209.28 261.952 208.951 261.991 208.632 262.084L209.303 264.401ZM209.61 264.364C209.9 264.364 210.07 264.417 210.167 264.467L211.274 262.324C210.758 262.057 210.188 261.952 209.61 261.952V264.364ZM210.174 264.471C210.278 264.523 210.334 264.582 210.376 264.659L212.489 263.494C212.205 262.979 211.786 262.584 211.267 262.32L210.174 264.471ZM210.384 264.673C210.429 264.752 210.479 264.892 210.479 265.141H212.891C212.891 264.563 212.773 263.993 212.481 263.48L210.384 264.673ZM210.479 265.141C210.479 265.314 210.442 265.464 210.368 265.606L212.512 266.712C212.765 266.222 212.891 265.692 212.891 265.141H210.479ZM210.372 265.599C210.323 265.692 210.244 265.785 210.089 265.876L211.306 267.958C211.814 267.661 212.23 267.25 212.508 266.719L210.372 265.599ZM210.101 265.869C210.002 265.925 209.803 265.994 209.434 265.994V268.407C210.086 268.407 210.729 268.287 211.294 267.965L210.101 265.869ZM209.434 265.994C209.201 265.994 208.995 265.954 208.805 265.879L207.92 268.124C208.404 268.314 208.912 268.407 209.434 268.407V265.994ZM208.819 265.885C208.652 265.817 208.544 265.732 208.467 265.637L206.605 267.171C206.956 267.597 207.399 267.911 207.906 268.118L208.819 265.885ZM208.467 265.637C208.431 265.594 208.395 265.531 208.388 265.396L205.979 265.529C206.012 266.129 206.212 266.694 206.605 267.171L208.467 265.637ZM207.183 266.669H208.37V264.256H207.183V266.669ZM207.17 265.58C207.226 266.152 207.5 266.706 208.055 267.056L209.343 265.017C209.406 265.056 209.471 265.12 209.518 265.201C209.562 265.279 209.57 265.336 209.57 265.345L207.17 265.58ZM208.055 267.056C208.491 267.331 208.976 267.427 209.434 267.427V265.014C209.368 265.014 209.333 265.007 209.321 265.004C209.31 265.002 209.322 265.003 209.343 265.017L208.055 267.056ZM209.434 267.427C210.017 267.427 210.721 267.257 211.193 266.634L209.268 265.179C209.299 265.139 209.335 265.104 209.374 265.075C209.412 265.046 209.447 265.029 209.47 265.02C209.514 265.003 209.513 265.014 209.434 265.014V267.427ZM211.181 266.649C211.538 266.192 211.682 265.657 211.682 265.126H209.269C209.269 265.176 209.263 265.195 209.263 265.193C209.264 265.193 209.265 265.188 209.268 265.182C209.272 265.176 209.276 265.17 209.28 265.164L211.181 266.649ZM211.682 265.126C211.682 264.533 211.484 263.954 211.03 263.5L209.324 265.205C209.317 265.198 209.308 265.187 209.298 265.173C209.288 265.158 209.281 265.143 209.276 265.129C209.265 265.101 209.269 265.095 209.269 265.126H211.682ZM211.03 263.5C210.539 263.008 209.905 262.848 209.319 262.848V265.26C209.401 265.26 209.427 265.271 209.417 265.267C209.411 265.265 209.397 265.26 209.379 265.249C209.36 265.237 209.341 265.223 209.324 265.205L211.03 263.5ZM209.319 262.848C208.973 262.848 208.537 262.886 208.145 263.082L209.223 265.24C209.189 265.257 209.164 265.265 209.153 265.269C209.142 265.272 209.14 265.272 209.151 265.27C209.174 265.266 209.227 265.26 209.319 265.26V262.848ZM208.145 263.082C207.951 263.179 207.765 263.289 207.592 263.415L209.011 265.366C209.062 265.329 209.131 265.286 209.223 265.24L208.145 263.082ZM213.633 270.845L212.741 270.033L212.74 270.035L213.633 270.845ZM214.943 270.845L214.037 271.641L214.049 271.655L214.063 271.67L214.943 270.845ZM214.943 272.047L214.063 271.222L214.056 271.229L214.049 271.237L214.943 272.047ZM213.633 272.047L212.74 272.857L212.747 272.864L212.754 272.872L213.633 272.047ZM213.641 264.084L212.749 263.273L212.747 263.274L213.641 264.084ZM214.95 264.084L214.044 264.881L214.057 264.895L214.07 264.909L214.95 264.084ZM214.95 265.286L214.07 264.461L214.063 264.469L214.057 264.476L214.95 265.286ZM213.641 265.286L212.747 266.096L212.754 266.104L212.761 266.111L213.641 265.286ZM214.618 271.45C214.618 271.455 214.616 271.487 214.599 271.534C214.581 271.583 214.554 271.625 214.527 271.655L212.74 270.035C212.372 270.44 212.205 270.939 212.205 271.45H214.618ZM214.526 271.656C214.472 271.716 214.405 271.758 214.345 271.781C214.291 271.802 214.266 271.798 214.292 271.798V269.386C213.759 269.386 213.179 269.552 212.741 270.033L214.526 271.656ZM214.292 271.798C214.318 271.798 214.291 271.802 214.232 271.78C214.167 271.754 214.095 271.708 214.037 271.641L215.849 270.049C215.412 269.552 214.822 269.386 214.292 269.386V271.798ZM214.063 271.67C214.036 271.641 214.007 271.599 213.987 271.547C213.968 271.496 213.966 271.46 213.966 271.45H216.378C216.378 270.927 216.201 270.424 215.823 270.02L214.063 271.67ZM213.966 271.45C213.966 271.434 213.969 271.394 213.989 271.342C214.01 271.289 214.038 271.248 214.063 271.222L215.823 272.872C216.196 272.473 216.378 271.974 216.378 271.45H213.966ZM214.049 271.237C214.11 271.169 214.183 271.125 214.244 271.102C214.299 271.081 214.322 271.086 214.292 271.086V273.498C214.811 273.498 215.397 273.342 215.836 272.857L214.049 271.237ZM214.292 271.086C214.262 271.086 214.283 271.081 214.334 271.1C214.39 271.121 214.457 271.161 214.513 271.222L212.754 272.872C213.194 273.341 213.77 273.498 214.292 273.498V271.086ZM214.527 271.237C214.552 271.264 214.579 271.305 214.597 271.355C214.615 271.403 214.618 271.439 214.618 271.45H212.205C212.205 271.962 212.377 272.456 212.74 272.857L214.527 271.237ZM214.625 264.689C214.625 264.695 214.624 264.727 214.607 264.774C214.589 264.822 214.562 264.864 214.535 264.894L212.747 263.274C212.38 263.68 212.213 264.179 212.213 264.689H214.625ZM214.534 264.896C214.479 264.956 214.413 264.998 214.353 265.021C214.298 265.042 214.273 265.038 214.3 265.038V262.626C213.767 262.626 213.186 262.792 212.749 263.273L214.534 264.896ZM214.3 265.038C214.326 265.038 214.299 265.042 214.24 265.019C214.175 264.994 214.103 264.947 214.044 264.881L215.856 263.288C215.42 262.791 214.83 262.626 214.3 262.626V265.038ZM214.07 264.909C214.043 264.881 214.015 264.838 213.995 264.786C213.976 264.736 213.974 264.699 213.974 264.689H216.386C216.386 264.167 216.209 263.663 215.83 263.259L214.07 264.909ZM213.974 264.689C213.974 264.674 213.977 264.634 213.997 264.582C214.017 264.529 214.046 264.488 214.07 264.461L215.83 266.111C216.204 265.713 216.386 265.214 216.386 264.689H213.974ZM214.057 264.476C214.118 264.409 214.19 264.364 214.252 264.341C214.307 264.321 214.33 264.325 214.3 264.325V266.738C214.819 266.738 215.404 266.582 215.844 266.096L214.057 264.476ZM214.3 264.325C214.27 264.325 214.29 264.321 214.341 264.34C214.398 264.361 214.464 264.401 214.521 264.461L212.761 266.111C213.202 266.581 213.778 266.738 214.3 266.738V264.325ZM214.535 264.476C214.56 264.504 214.587 264.545 214.605 264.594C214.623 264.643 214.625 264.678 214.625 264.689H212.213C212.213 265.202 212.384 265.696 212.747 266.096L214.535 264.476ZM221.576 266.113H222.783V264.907H221.576V266.113ZM221.576 267.093V268.299H222.783V267.093H221.576ZM216.998 267.093H215.792V268.299H216.998V267.093ZM216.998 266.266L216.172 265.388L215.792 265.745V266.266H216.998ZM219.203 264.192L218.38 263.31L218.377 263.313L219.203 264.192ZM220.03 263.166L218.928 262.676L218.923 262.686L218.919 262.696L220.03 263.166ZM218.33 262.239L217.455 261.41L217.449 261.416L217.443 261.422L218.33 262.239ZM218.062 262.967V264.173H219.268V262.967H218.062ZM216.853 262.967H215.647V264.173H216.853V262.967ZM217.917 261.244L218.475 262.313L218.488 262.306L217.917 261.244ZM221.079 261.818L220.064 262.469L220.069 262.478L221.079 261.818ZM221.155 263.533L220.086 262.975L220.081 262.984L220.077 262.994L221.155 263.533ZM220.65 264.238L221.531 265.061L220.65 264.238ZM219.869 264.995L220.642 265.922L220.659 265.907L220.675 265.893L219.869 264.995ZM218.529 266.113L217.757 265.187L215.201 267.319H218.529V266.113ZM220.37 266.113V267.093H222.783V266.113H220.37ZM221.576 265.887H216.998V268.299H221.576V265.887ZM218.204 267.093V266.266H215.792V267.093H218.204ZM217.825 267.145L220.03 265.07L218.377 263.313L216.172 265.388L217.825 267.145ZM220.026 265.073C220.282 264.834 220.51 264.597 220.694 264.364L218.799 262.871C218.718 262.975 218.584 263.12 218.38 263.31L220.026 265.073ZM220.694 264.364C220.864 264.148 221.028 263.903 221.141 263.636L218.919 262.696C218.921 262.691 218.916 262.704 218.895 262.737C218.875 262.77 218.844 262.814 218.799 262.871L220.694 264.364ZM221.132 263.656C221.24 263.414 221.328 263.119 221.328 262.791H218.916C218.916 262.737 218.923 262.7 218.927 262.682C218.932 262.664 218.934 262.662 218.928 262.676L221.132 263.656ZM221.328 262.791C221.328 262.247 221.133 261.724 220.716 261.319L219.038 263.052C219.004 263.02 218.968 262.97 218.943 262.908C218.918 262.848 218.916 262.804 218.916 262.791H221.328ZM220.716 261.319C220.262 260.88 219.69 260.742 219.18 260.742V263.154C219.227 263.154 219.225 263.161 219.191 263.149C219.152 263.136 219.094 263.106 219.038 263.052L220.716 261.319ZM219.18 260.742C218.612 260.742 217.95 260.887 217.455 261.41L219.206 263.069C219.179 263.097 219.151 263.119 219.125 263.136C219.099 263.152 219.079 263.159 219.071 263.162C219.058 263.167 219.086 263.154 219.18 263.154V260.742ZM217.443 261.422C217.038 261.863 216.856 262.407 216.856 262.967H219.268C219.268 262.946 219.271 262.956 219.261 262.984C219.256 262.997 219.249 263.011 219.241 263.025C219.232 263.039 219.224 263.049 219.217 263.056L217.443 261.422ZM218.062 261.76H216.853V264.173H218.062V261.76ZM218.059 262.967C218.059 262.811 218.095 262.696 218.158 262.592L216.099 261.335C215.795 261.834 215.647 262.387 215.647 262.967H218.059ZM218.158 262.592C218.217 262.495 218.309 262.4 218.475 262.313L217.358 260.175C216.841 260.445 216.407 260.83 216.099 261.335L218.158 262.592ZM218.488 262.306C218.617 262.237 218.823 262.175 219.149 262.175V259.762C218.517 259.762 217.9 259.884 217.346 260.182L218.488 262.306ZM219.149 262.175C219.484 262.175 219.698 262.229 219.831 262.289L220.826 260.092C220.306 259.856 219.734 259.762 219.149 259.762V262.175ZM219.831 262.289C219.971 262.352 220.03 262.417 220.064 262.469L222.094 261.167C221.781 260.678 221.34 260.324 220.826 260.092L219.831 262.289ZM220.069 262.478C220.093 262.515 220.133 262.595 220.133 262.775H222.545C222.545 262.21 222.411 261.652 222.088 261.158L220.069 262.478ZM220.133 262.775C220.133 262.856 220.117 262.917 220.086 262.975L222.225 264.091C222.439 263.68 222.545 263.236 222.545 262.775H220.133ZM220.077 262.994C220.021 263.105 219.926 263.246 219.769 263.414L221.531 265.061C221.813 264.76 222.055 264.431 222.234 264.073L220.077 262.994ZM219.769 263.414C219.579 263.617 219.345 263.845 219.063 264.098L220.675 265.893C220.996 265.604 221.283 265.327 221.531 265.061L219.769 263.414ZM219.097 264.069L217.757 265.187L219.302 267.039L220.642 265.922L219.097 264.069ZM218.529 267.319H221.576V264.907H218.529V267.319ZM227.1 266.427L226.142 265.694L226.14 265.697L227.1 266.427ZM226.296 267.009L226.718 268.139L226.725 268.136L226.733 268.133L226.296 267.009ZM223.984 267.009L223.548 268.133L223.555 268.136L223.562 268.139L223.984 267.009ZM223.165 266.427L222.207 267.16L222.215 267.17L222.223 267.181L223.165 266.427ZM223.157 264.567L222.214 263.816L222.209 263.822L222.204 263.828L223.157 264.567ZM223.969 263.985L223.518 262.866L223.969 263.985ZM227.1 264.567L226.147 265.306L226.152 265.312L226.156 265.318L227.1 264.567ZM226.067 264.919L225.088 265.624L225.095 265.633L225.102 265.643L226.067 264.919ZM225.684 264.628L225.187 265.727L225.208 265.737L225.23 265.745L225.684 264.628ZM224.574 264.628L225.04 265.74L225.055 265.734L225.07 265.727L224.574 264.628ZM224.206 264.919L225.19 265.616L225.197 265.607L225.204 265.597L224.206 264.919ZM224.206 265.822L225.204 265.144L224.206 265.822ZM224.574 266.121L224.077 267.22L224.098 267.23L224.12 267.238L224.574 266.121ZM225.691 266.121L226.158 267.233L226.166 267.23L226.175 267.226L225.691 266.121ZM226.067 265.822L225.088 265.118L225.078 265.131L225.069 265.144L226.067 265.822ZM226.978 263.51L226.02 262.777L226.018 262.78L226.978 263.51ZM226.235 264.061L226.686 265.18L226.694 265.177L226.701 265.174L226.235 264.061ZM224.038 264.061L223.571 265.174L223.582 265.178L223.593 265.183L224.038 264.061ZM223.287 263.51L222.32 264.231L222.329 264.242L222.338 264.254L223.287 263.51ZM223.287 261.757L222.315 261.043L222.311 261.049L222.306 261.056L223.287 261.757ZM224.038 261.19L224.489 262.309L224.498 262.305L224.038 261.19ZM226.22 261.19L225.753 262.303L225.764 262.307L225.775 262.311L226.22 261.19ZM225.929 262.346L224.899 262.974L224.915 263L224.932 263.026L225.929 262.346ZM225.615 262.071L225.075 263.15L225.084 263.154L225.092 263.158L225.615 262.071ZM224.329 263.158L223.298 263.785L223.308 263.801L223.318 263.817L224.329 263.158ZM225.799 263.319L225.004 262.411L224.997 262.417L224.99 262.424L225.799 263.319ZM226.193 265.462C226.193 265.627 226.154 265.679 226.142 265.694L228.058 267.16C228.444 266.655 228.605 266.064 228.605 265.462H226.193ZM226.14 265.697C226.099 265.751 226.025 265.821 225.86 265.885L226.733 268.133C227.252 267.932 227.713 267.614 228.06 267.157L226.14 265.697ZM225.875 265.879C225.689 265.948 225.45 265.994 225.14 265.994V268.407C225.688 268.407 226.22 268.325 226.718 268.139L225.875 265.879ZM225.14 265.994C224.831 265.994 224.592 265.948 224.406 265.879L223.562 268.139C224.061 268.325 224.592 268.407 225.14 268.407V265.994ZM224.42 265.885C224.252 265.819 224.162 265.743 224.107 265.674L222.223 267.181C222.576 267.621 223.032 267.933 223.548 268.133L224.42 265.885ZM224.123 265.694C224.111 265.679 224.072 265.627 224.072 265.462H221.66C221.66 266.064 221.821 266.655 222.207 267.16L224.123 265.694ZM224.072 265.462C224.072 265.356 224.096 265.324 224.11 265.306L222.204 263.828C221.83 264.31 221.66 264.875 221.66 265.462H224.072ZM224.101 265.318C224.152 265.254 224.241 265.176 224.42 265.104L223.518 262.866C223.013 263.07 222.561 263.379 222.214 263.816L224.101 265.318ZM224.42 265.104C224.595 265.033 224.826 264.984 225.133 264.984V262.572C224.571 262.572 224.026 262.661 223.518 262.866L224.42 265.104ZM225.133 264.984C225.439 264.984 225.67 265.033 225.845 265.104L226.747 262.866C226.239 262.661 225.694 262.572 225.133 262.572V264.984ZM225.845 265.104C226.022 265.175 226.104 265.251 226.147 265.306L228.053 263.828C227.708 263.383 227.254 263.07 226.747 262.866L225.845 265.104ZM226.156 265.318C226.171 265.336 226.193 265.363 226.193 265.462H228.605C228.605 264.868 228.428 264.298 228.044 263.816L226.156 265.318ZM227.411 265.371C227.411 264.976 227.305 264.56 227.031 264.195L225.102 265.643C225.061 265.589 225.033 265.53 225.016 265.476C225 265.423 224.998 265.385 224.998 265.371H227.411ZM227.045 264.214C226.805 263.881 226.485 263.652 226.138 263.511L225.23 265.745C225.223 265.743 225.201 265.733 225.172 265.711C225.143 265.688 225.113 265.659 225.088 265.624L227.045 264.214ZM226.18 263.529C225.837 263.374 225.478 263.315 225.133 263.315V265.727C225.205 265.727 225.214 265.739 225.187 265.727L226.18 263.529ZM225.133 263.315C224.786 263.315 224.424 263.372 224.077 263.529L225.07 265.727C225.04 265.741 225.05 265.727 225.133 265.727V263.315ZM224.107 263.516C223.759 263.662 223.441 263.899 223.209 264.241L225.204 265.597C225.177 265.636 225.145 265.67 225.112 265.696C225.079 265.722 225.052 265.735 225.04 265.74L224.107 263.516ZM223.222 264.222C222.965 264.584 222.87 264.991 222.87 265.371H225.282C225.282 265.379 225.281 265.41 225.268 265.458C225.253 265.507 225.229 265.562 225.19 265.616L223.222 264.222ZM222.87 265.371C222.87 265.755 222.969 266.149 223.209 266.501L225.204 265.144C225.233 265.187 225.254 265.234 225.268 265.28C225.28 265.324 225.282 265.356 225.282 265.371H222.87ZM223.209 266.501C223.436 266.834 223.742 267.069 224.077 267.22L225.07 265.022C225.076 265.025 225.097 265.035 225.124 265.057C225.151 265.079 225.179 265.109 225.204 265.144L223.209 266.501ZM224.12 267.238C224.455 267.374 224.803 267.427 225.14 267.427V265.014C225.049 265.014 225.019 265 225.028 265.003L224.12 267.238ZM225.14 267.427C225.475 267.427 225.823 267.373 226.158 267.233L225.225 265.009C225.243 265.001 225.224 265.014 225.14 265.014V267.427ZM226.175 267.226C226.513 267.078 226.831 266.844 227.064 266.501L225.069 265.144C225.097 265.104 225.128 265.072 225.157 265.049C225.185 265.027 225.205 265.017 225.208 265.016L226.175 267.226ZM227.045 266.527C227.3 266.173 227.411 265.77 227.411 265.371H224.998C224.998 265.35 225.001 265.312 225.016 265.262C225.032 265.211 225.056 265.161 225.088 265.118L227.045 266.527ZM226.047 262.676C226.047 262.74 226.035 262.758 226.02 262.777L227.935 264.244C228.288 263.783 228.459 263.244 228.459 262.676H226.047ZM226.018 262.78C225.987 262.821 225.922 262.885 225.769 262.949L226.701 265.174C227.181 264.973 227.611 264.669 227.938 264.241L226.018 262.78ZM225.784 262.943C225.638 263.002 225.431 263.047 225.14 263.047V265.459C225.676 265.459 226.199 265.376 226.686 265.18L225.784 262.943ZM225.14 263.047C224.85 263.047 224.638 263.002 224.483 262.94L223.593 265.183C224.081 265.376 224.603 265.459 225.14 265.459V263.047ZM224.504 262.949C224.349 262.884 224.276 262.816 224.237 262.767L222.338 264.254C222.666 264.674 223.094 264.973 223.571 265.174L224.504 262.949ZM224.255 262.79C224.241 262.771 224.226 262.749 224.226 262.676H221.813C221.813 263.236 221.977 263.77 222.32 264.231L224.255 262.79ZM224.226 262.676C224.226 262.518 224.261 262.469 224.269 262.458L222.306 261.056C221.956 261.545 221.813 262.108 221.813 262.676H224.226ZM224.259 262.471C224.297 262.419 224.359 262.361 224.489 262.309L223.587 260.072C223.084 260.275 222.645 260.594 222.315 261.043L224.259 262.471ZM224.498 262.305C224.65 262.242 224.855 262.197 225.133 262.197V259.785C224.593 259.785 224.068 259.873 223.578 260.076L224.498 262.305ZM225.133 262.197C225.411 262.197 225.61 262.243 225.753 262.303L226.686 260.078C226.197 259.873 225.671 259.785 225.133 259.785V262.197ZM225.775 262.311C225.911 262.365 225.971 262.424 226.006 262.471L227.95 261.043C227.617 260.59 227.172 260.271 226.665 260.069L225.775 262.311ZM226.006 262.471C226.013 262.481 226.047 262.526 226.047 262.676H228.459C228.459 262.101 228.31 261.533 227.95 261.043L226.006 262.471ZM227.25 262.752C227.25 262.392 227.16 262.011 226.925 261.667L224.932 263.026C224.895 262.971 224.869 262.914 224.854 262.861C224.84 262.809 224.837 262.77 224.837 262.752H227.25ZM226.959 261.719C226.753 261.381 226.461 261.14 226.138 260.984L225.092 263.158C225.072 263.148 225.038 263.129 225.001 263.096C224.963 263.062 224.927 263.021 224.899 262.974L226.959 261.719ZM226.154 260.992C225.815 260.822 225.459 260.765 225.133 260.765V263.177C225.184 263.177 225.15 263.187 225.075 263.15L226.154 260.992ZM225.133 260.765C224.658 260.765 224.13 260.884 223.689 261.256L225.244 263.1C225.192 263.144 225.142 263.166 225.113 263.175C225.087 263.183 225.089 263.177 225.133 263.177V260.765ZM223.689 261.256C223.212 261.658 223.015 262.21 223.015 262.752H225.428C225.428 262.764 225.425 262.82 225.392 262.898C225.357 262.981 225.303 263.051 225.244 263.1L223.689 261.256ZM223.015 262.752C223.015 263.101 223.099 263.458 223.298 263.785L225.359 262.531C225.385 262.573 225.403 262.618 225.414 262.66C225.425 262.702 225.428 262.735 225.428 262.752H223.015ZM223.318 263.817C223.526 264.135 223.81 264.368 224.127 264.52L225.173 262.347C225.191 262.355 225.219 262.372 225.251 262.399C225.284 262.427 225.314 262.461 225.339 262.499L223.318 263.817ZM224.127 264.52C224.462 264.682 224.812 264.739 225.14 264.739V262.327C225.091 262.327 225.114 262.318 225.173 262.347L224.127 264.52ZM225.14 264.739C225.623 264.739 226.165 264.614 226.607 264.214L224.99 262.424C225.047 262.373 225.104 262.345 225.142 262.333C225.176 262.322 225.18 262.327 225.14 262.327V264.739ZM226.593 264.226C227.041 263.834 227.25 263.303 227.25 262.752H224.837C224.837 262.728 224.842 262.668 224.875 262.591C224.909 262.512 224.959 262.451 225.004 262.411L226.593 264.226Z" fill="black" fill-opacity="0.1" mask="url(#path-18-outside-5_56_1377)"/>
<mask id="path-20-outside-6_56_1377" maskUnits="userSpaceOnUse" x="121.682" y="253.612" width="20" height="26" fill="black">
<rect fill="white" x="121.682" y="253.612" width="20" height="26"/>
<path fill-rule="evenodd" clip-rule="evenodd" d="M123.682 262.643H128.506L134.537 256.612V275.91L128.506 269.88H123.682V262.643ZM136.949 261.437V271.086L138.939 268.432C139.904 267.146 139.904 265.377 138.939 264.09L136.949 261.437Z"/>
</mask>
<path fill-rule="evenodd" clip-rule="evenodd" d="M123.682 262.643H128.506L134.537 256.612V275.91L128.506 269.88H123.682V262.643ZM136.949 261.437V271.086L138.939 268.432C139.904 267.146 139.904 265.377 138.939 264.09L136.949 261.437Z" fill="#EAEAEA"/>
<path d="M128.506 262.643V263.849H129.006L129.359 263.496L128.506 262.643ZM123.682 262.643V261.437H122.476V262.643H123.682ZM134.537 256.612H135.743V253.7L133.684 255.759L134.537 256.612ZM134.537 275.91L133.684 276.763L135.743 278.822V275.91H134.537ZM128.506 269.88L129.359 269.027L129.006 268.673H128.506V269.88ZM123.682 269.88H122.476V271.086H123.682V269.88ZM136.949 271.086H135.743V274.704L137.914 271.809L136.949 271.086ZM136.949 261.437L137.914 260.713L135.743 257.818V261.437H136.949ZM138.939 264.09L137.974 264.814H137.974L138.939 264.09ZM128.506 261.437H123.682V263.849H128.506V261.437ZM133.684 255.759L127.653 261.79L129.359 263.496L135.39 257.465L133.684 255.759ZM135.743 275.91V256.612H133.331V275.91H135.743ZM127.653 270.732L133.684 276.763L135.39 275.057L129.359 269.027L127.653 270.732ZM123.682 271.086H128.506V268.673H123.682V271.086ZM122.476 262.643V269.88H124.888V262.643H122.476ZM138.155 271.086V261.437H135.743V271.086H138.155ZM137.974 267.709L135.984 270.362L137.914 271.809L139.904 269.156L137.974 267.709ZM137.974 264.814C138.617 265.672 138.617 266.851 137.974 267.709L139.904 269.156C141.191 267.441 141.191 265.082 139.904 263.367L137.974 264.814ZM135.984 262.16L137.974 264.814L139.904 263.367L137.914 260.713L135.984 262.16Z" fill="black" fill-opacity="0.1" mask="url(#path-20-outside-6_56_1377)"/>
<mask id="path-22-outside-7_56_1377" maskUnits="userSpaceOnUse" x="83.0859" y="256.024" width="18" height="20" fill="black">
<rect fill="white" x="83.0859" y="256.024" width="18" height="20"/>
<path fill-rule="evenodd" clip-rule="evenodd" d="M85.0859 259.024L94.7349 266.261L85.0859 273.498V259.024ZM99.5594 259.024H97.1472V273.498H99.5594V259.024Z"/>
</mask>
<path fill-rule="evenodd" clip-rule="evenodd" d="M85.0859 259.024L94.7349 266.261L85.0859 273.498V259.024ZM99.5594 259.024H97.1472V273.498H99.5594V259.024Z" fill="#EAEAEA"/>
<path d="M94.7349 266.261L95.4586 267.226L96.7451 266.261L95.4586 265.296L94.7349 266.261ZM85.0859 259.024L85.8096 258.059L83.8798 256.612V259.024H85.0859ZM85.0859 273.498H83.8798V275.91L85.8096 274.463L85.0859 273.498ZM97.1472 259.024V257.818H95.941V259.024H97.1472ZM99.5594 259.024H100.766V257.818H99.5594V259.024ZM97.1472 273.498H95.941V274.704H97.1472V273.498ZM99.5594 273.498V274.704H100.766V273.498H99.5594ZM95.4586 265.296L85.8096 258.059L84.3623 259.989L94.0112 267.226L95.4586 265.296ZM85.8096 274.463L95.4586 267.226L94.0112 265.296L84.3623 272.533L85.8096 274.463ZM83.8798 259.024V273.498H86.2921V259.024H83.8798ZM97.1472 260.23H99.5594V257.818H97.1472V260.23ZM98.3533 273.498V259.024H95.941V273.498H98.3533ZM99.5594 272.291H97.1472V274.704H99.5594V272.291ZM98.3533 259.024V273.498H100.766V259.024H98.3533Z" fill="black" fill-opacity="0.1" mask="url(#path-22-outside-7_56_1377)"/>
<path d="M35.6348 275.91V256.612L51.3144 266.261L35.6348 275.91Z" fill="#EAEAEA"/>
<path d="M35.0317 275.91V276.989L35.9508 276.424L51.6304 266.775L52.465 266.261L51.6304 265.747L35.9508 256.098L35.0317 255.533V256.612V275.91Z" stroke="black" stroke-opacity="0.1" stroke-width="1.20612"/>
<rect x="15.1309" y="240.932" width="482.053" height="3.61837" fill="#EAEAEA" fill-opacity="0.2"/>
<rect x="5.45166" y="240.932" width="250.904" height="3.61837" fill="#EAEAEA" fill-opacity="0.5"/>
<rect x="5.45166" y="240.932" width="167.802" height="3.61837" fill="#FC0D1C"/>
<path d="M36.0472 27.0878L32.6362 38.8571H30.9139L28.1784 29.3843L25.3416 38.8571L23.6362 38.874L20.3434 27.0878H21.9814L24.548 37.0673L27.3848 27.0878H29.1071L31.8088 37.0335L34.3924 27.0878H36.0472ZM45.1416 27.0878V28.3373H41.9333V38.8571H40.3967V28.3373H37.1715V27.0878H45.1416Z" fill="white"/>
<path fill-rule="evenodd" clip-rule="evenodd" d="M492.359 29.9184C492.359 36.5796 486.959 41.9796 480.298 41.9796C473.637 41.9796 468.237 36.5796 468.237 29.9184C468.237 23.2572 473.637 17.8571 480.298 17.8571C486.959 17.8571 492.359 23.2572 492.359 29.9184ZM481.504 22.6816V25.0939H479.092V22.6816H481.504ZM481.504 37.1551V27.5061H479.092V37.1551H481.504Z" fill="#EAEAEA"/>
<path d="M480.298 42.5827C487.292 42.5827 492.962 36.9126 492.962 29.9184C492.962 22.9241 487.292 17.2541 480.298 17.2541C473.304 17.2541 467.634 22.9241 467.634 29.9184C467.634 36.9126 473.304 42.5827 480.298 42.5827ZM480.901 23.2847V24.4908H479.695V23.2847H480.901ZM479.695 28.1092H480.901V36.552H479.695V28.1092Z" stroke="black" stroke-opacity="0.1" stroke-width="1.20612"/>
<defs>
<filter id="filter0_d_56_1377" x="347.625" y="259.024" width="10.855" height="7.23673" filterUnits="userSpaceOnUse" color-interpolation-filters="sRGB">
<feFlood flood-opacity="0" result="BackgroundImageFix"/>
<feColorMatrix in="SourceAlpha" type="matrix" values="0 0 0 0 0 0 0 0 0 0 0 0 0 0 0 0 0 0 127 0" result="hardAlpha"/>
<feOffset dy="1.20612"/>
<feColorMatrix type="matrix" values="0 0 0 0 0.337255 0 0 0 0 0.0392157 0 0 0 0 0.0588235 0 0 0 1 0"/>
<feBlend mode="normal" in2="BackgroundImageFix" result="effect1_dropShadow_56_1377"/>
<feBlend mode="normal" in="SourceGraphic" in2="effect1_dropShadow_56_1377" result="shape"/>
</filter>
<linearGradient id="paint0_linear_56_1377" x1="255.5" y1="0" x2="255.5" y2="115.788" gradientUnits="userSpaceOnUse">
<stop stop-opacity="0"/>
<stop offset="1" stop-opacity="0.5"/>
</linearGradient>
<linearGradient id="paint1_linear_56_1377" x1="767.157" y1="116.759" x2="767.157" y2="232.547" gradientUnits="userSpaceOnUse">
<stop stop-opacity="0"/>
<stop offset="1" stop-opacity="0.25"/>
</linearGradient>
<clipPath id="clip0_56_1377">
<rect width="83" height="58.3594" fill="white" transform="translate(214.657 114.971)"/>
</clipPath>
</defs>
</svg>
